<svg xmlns="http://www.w3.org/2000/svg" width="33" height="35" viewBox="0 0 33 35">
    <g fill="none" fill-rule="nonzero">
        <path fill="#CFD2FC" d="M13 27h7v7h-7z"/>
        <path fill="#8690FA" d="M23.832 35H9.168C8.523 35 8 34.552 8 34s.523-1 1.168-1h14.664c.645 0 1.168.448 1.168 1s-.523 1-1.168 1z"/>
        <path fill="#CFD2FC" d="M1 22.333C1 24.91 3.135 27 5.77 27h21.46c2.635 0 4.77-2.09 4.77-4.667V20H1v2.333z"/>
        <path fill="#355DF6" d="M27.107 0H5.893C2.64.004.004 2.613 0 5.833v16.334c.004 3.22 2.64 5.829 5.893 5.833h5.893v4.667H9.103c-.65 0-1.178.522-1.178 1.166 0 .645.528 1.167 1.178 1.167h14.794c.65 0 1.178-.522 1.178-1.167 0-.644-.528-1.166-1.178-1.166h-2.683V28h5.893c3.253-.004 5.889-2.613 5.893-5.833V5.833C32.996 2.613 30.36.004 27.107 0zM5.893 2.333h21.214c1.953 0 3.536 1.567 3.536 3.5v12.834H2.357V5.833c0-1.933 1.583-3.5 3.536-3.5zm12.964 30.334h-4.714V28h4.714v4.667zm8.25-7H5.893c-1.953 0-3.536-1.567-3.536-3.5V21h28.286v1.167c0 1.933-1.583 3.5-3.536 3.5z"/>
        <path fill="#FFF" d="M17 23a1 1 0 1 1-2 0 1 1 0 0 1 2 0z"/>
    </g>
</svg>
