<svg xmlns="http://www.w3.org/2000/svg" width="35" height="35" viewBox="0 0 35 35">
    <g fill="none" fill-rule="nonzero">
        <path fill="#CFD2FC" d="M8 8h19v19H8z"/>
        <path fill="#365CF6" d="M9.625 32.25H2.75v-6.875a1.375 1.375 0 0 0-2.75 0v8.25C0 34.385.616 35 1.375 35h8.25a1.375 1.375 0 0 0 0-2.75zM33.625 24c-.76 0-1.375.616-1.375 1.375v6.875h-6.875a1.375 1.375 0 0 0 0 2.75h8.25c.76 0 1.375-.616 1.375-1.375v-8.25c0-.76-.616-1.375-1.375-1.375zM33.625 0h-8.25a1.375 1.375 0 0 0 0 2.75h6.875v6.875a1.375 1.375 0 0 0 2.75 0v-8.25C35 .615 34.384 0 33.625 0zM9.625 0h-8.25C.615 0 0 .616 0 1.375v8.25a1.375 1.375 0 0 0 2.75 0V2.75h6.875a1.375 1.375 0 0 0 0-2.75z"/>
    </g>
</svg>
