<svg xmlns="http://www.w3.org/2000/svg" xmlns:xlink="http://www.w3.org/1999/xlink" width="457" height="346" viewBox="0 0 457 346">
    <defs>
        <path id="a" d="M370.682.04a65.82 65.82 0 0 0-10.285.866C296.93 11.182 307.654 78.104 268.34 36.8c-23.526-24.716-76.765-49.325-110.144 14.043-17.138 32.538-41.213 26.62-67.147 20.702-24.57-5.607-50.812-11.216-74.404 15.889-33.671 38.684-8.986 70.763 17.9 77.377 38.091 9.37 50.568-8.096 60.485 52.41 3.363 20.542 15.002 40.51 34.028 50.13 13.685 6.918 30.495 7.82 44.488 1.541 7.784-3.491 14.48-8.98 21.885-13.216 7.402-4.234 16.16-7.25 24.422-5.115 7.956 2.056 14.018 8.526 18.453 15.432 10.659 16.613 14.174 37.152 26.37 52.854 10.28 13.235 26.997 24.233 43.917 25.804 22.147 2.057 42.674-10.948 59.562-23.747 19.809-15.008 36.411-34.059 49.346-55.212 16.571-27.1 27.216-57.563 33.207-88.741 5.331-27.756 7.023-56.483 1.845-84.268C444.94 51.833 417.388.241 371.198.04h-.516z"/>
        <linearGradient id="b" x1=".5%" x2=".5%" y1="-4.633%" y2="101.5%">
            <stop offset="0%" stop-color="#54A5F6"/>
            <stop offset="100%" stop-color="#1088EE"/>
        </linearGradient>
        <path id="d" d="M132.008 18.589c-41.842 38.851-41.03 18.896-74.352 4.09-23.521-10.451-59.973-.92-57.345 46.71.33 5.97 1.32 11.215 2.845 15.866a47.897 47.897 0 0 0 10.882 4.161c37.809 9.314 50.4-7.83 60.286 51.063 6.654 6.654 10.7 15.433 9.993 28.442 5.835 9.76 13.982 18.033 24.303 23.258 13.695 6.934 30.518 7.838 44.52 1.546 7.79-3.5 14.49-9 21.902-13.246 7.408-4.243 16.172-7.265 24.44-5.125 7.962 2.06 14.029 8.544 18.465 15.465 10.669 16.65 14.187 37.234 26.392 52.97 10.287 13.263 27.016 24.286 43.949 25.86 22.164 2.062 42.705-10.972 59.606-23.798 15.978-12.124 29.87-26.879 41.438-43.248 3.354-11.778 5.804-23.798 7.177-35.974 2.584-22.923 1.272-46.392-4.7-68.713-5.093-19.031-12.739-40.29-30.176-51.392-13.324-8.482-31.883-9.916-46.992-6.038-17.925 4.6-32.24 17.704-49.556 23.848-7.201 2.554-15.349 3.86-22.366.839-7.287-3.135-11.994-10.343-15.012-17.675-3.02-7.332-4.802-15.184-8.522-22.185-6.69-12.587-19.55-21.5-33.553-24.206a51.394 51.394 0 0 0-9.77-.928c-16.204 0-32.022 7.425-43.854 18.41"/>
        <linearGradient id="e" x1="31.064%" x2="-31.064%" y1="31.064%" y2="31.064%">
            <stop offset="0%" stop-color="#1579FF"/>
            <stop offset="100%" stop-color="#7922E5"/>
        </linearGradient>
        <path id="g" d="M.585 19.732c3.48 16.874 18.089 28.956 33.414 32.736 38.063 9.387 50.532-8.112 60.441 52.509 3.361 20.581 14.992 40.587 34.004 50.225 13.676 6.932 30.474 7.836 44.457 1.545 7.779-3.498 14.47-8.997 21.87-13.241 7.397-4.242 16.148-7.263 24.404-5.124 7.951 2.059 14.009 8.541 18.439 15.46 10.653 16.645 14.166 37.224 26.354 52.956 10.272 13.26 26.977 24.279 43.885 25.853 17.75 1.653 34.46-6.403 49.086-16.273a174.792 174.792 0 0 0 2.109-16.154c1.664-20.067 1.643-43.157-11.292-59.85-9.88-12.752-27.224-20.53-43.081-22.004-10.336-.96-20.51.924-30.691 2.807-8.35 1.544-16.706 3.089-25.158 3.063-7.8-.023-16.08-1.575-21.786-6.9-5.923-5.53-7.963-14.088-8.338-22.182-.372-8.096.62-16.264-.542-24.283-2.093-14.418-11.38-27.426-23.904-34.854-17.415-10.332-39.366-9.455-57.567-1.66-53.603 22.964-45.945 4.043-72.869-21.687C55.992 5.194 44.892.22 33.568.22 21.623.222 9.431 5.76.585 19.732"/>
        <linearGradient id="h" x1=".5%" x2=".5%" y1="-4.633%" y2="101.5%">
            <stop offset="0%" stop-color="#54A5F6"/>
            <stop offset="100%" stop-color="#09068F"/>
        </linearGradient>
        <path id="j" d="M17.36 1.319c-6.202 2.921-.388 10.457-6.883 11.815-6.495 1.358-5.67 6.803-4.072 9.569 2.67 4.624-3.014 1.912-5.552 7.368-1.77 3.802.942 7.373 5.094 10.306 5.62 3.97 11.191 4.713 17.989.74 6.623-3.87 10.764-5.892 7.354-11.43-1.652-2.68-7.848-4.468-2.782-8.538 3.623-2.911 2.182-7.552-1.604-9.375-5.131-2.473-3.256-3.143-3.116-6.823C23.866 2.944 22.556.66 19.972.66c-.76.001-1.633.199-2.612.66"/>
        <linearGradient id="k" x1="46.054%" x2="97.11%" y1="67.145%" y2="-8.054%">
            <stop offset="0%" stop-color="#F60E46"/>
            <stop offset="100%" stop-color="#FFB31C"/>
        </linearGradient>
        <path id="m" d="M3.472 7.129c1.756 4.15 4.233 4.097-.685 9.17C-.84 20.042-.517 25.985 4.97 27.732c7.67 2.443 1.213 7.2.446 10.989-1.584 7.829 4.122 8.332 13.52 9.865 9.65 1.573 15.828-1.714 20.668-8.719 3.576-5.17 5.194-10.446 1.487-14.022-5.324-5.134-10.78.455-9.663-6.003.667-3.866-.722-10.458-8.888-9.172C14.376 11.956 17.899.79 9.402.16 9.13.138 8.87.13 8.617.13 3.39.13 2.29 4.333 3.472 7.128"/>
        <linearGradient id="n" x1="70.869%" x2="25.524%" y1="134.788%" y2="-33.208%">
            <stop offset="0%" stop-color="#F60E46"/>
            <stop offset="100%" stop-color="#FFB31C"/>
        </linearGradient>
        <path id="p" d="M4.048 9.304c-4.796 9.364-5.932 15.47 1.676 15.22 7.606-.252 14.733-20.638 8.67-23.586a4.014 4.014 0 0 0-1.773-.424C9.083.513 6.013 5.467 4.048 9.304"/>
        <linearGradient id="q" x1="96.845%" x2="58.397%" y1="-86.5%" y2="30.916%">
            <stop offset="0%" stop-color="#F60E46"/>
            <stop offset="100%" stop-color="#FFB31C"/>
        </linearGradient>
        <path id="s" d="M32.353.069L1.287 4.139a.853.853 0 0 0-.713 1.093L7.283 27.24c.613 2.015 2.61 3.291 4.714 3.015l16.86-2.208c2.103-.276 3.697-2.023 3.763-4.126L33.33.942a.86.86 0 0 0-.861-.88.844.844 0 0 0-.116.007"/>
        <linearGradient id="t" x1="67.241%" x2="40.644%" y1="134.828%" y2="-49.061%">
            <stop offset="0%" stop-color="#36078A"/>
            <stop offset="100%" stop-color="#15B1FF"/>
        </linearGradient>
        <path id="v" d="M.17 1.517c-1.34 2.344 10.867 5.719 13.998 3.71C17.301 3.22 12.731 1.589 7.378.68 6.246.489 4.888.306 3.646.306 2.08.306.697.594.17 1.516"/>
        <linearGradient id="w" x1="132.266%" x2="45.648%" y1="-15.731%" y2="53.095%">
            <stop offset="0%" stop-color="#F60E46"/>
            <stop offset="100%" stop-color="#FFB31C"/>
        </linearGradient>
        <path id="y" d="M1.232.343c-1.51.699-.535 2.742.304 4.13 1.76 2.915 3.325 4.313 4.843 2.35C7.773 5.022 4.066.226 1.797.225c-.202 0-.39.037-.565.118"/>
        <linearGradient id="z" x1="111.969%" x2="-46.515%" y1="-88.774%" y2="258.365%">
            <stop offset="0%" stop-color="#F60E46"/>
            <stop offset="100%" stop-color="#FFB31C"/>
        </linearGradient>
        <path id="B" d="M.794 3.347c-.79 3.19-.705 5.13 1.561 4.527C4.622 7.272 5.346.56 3.32.08a1.358 1.358 0 0 0-.301-.036c-1.23 0-1.875 1.895-2.225 3.303"/>
        <linearGradient id="C" x1="-29.266%" x2="89.207%" y1="615.565%" y2="-219.596%">
            <stop offset="0%" stop-color="#F60E46"/>
            <stop offset="100%" stop-color="#FFB31C"/>
        </linearGradient>
        <path id="E" d="M.664 7.107C1.8 8.08 3.4 6.513 4.434 5.299 6.6 2.756 7.408.945 5.083.441a1.405 1.405 0 0 0-.296-.03C2.462.41-.882 5.783.664 7.106"/>
        <linearGradient id="F" x1="-90.74%" x2="174.472%" y1="641.068%" y2="-475.191%">
            <stop offset="0%" stop-color="#F60E46"/>
            <stop offset="100%" stop-color="#FFB31C"/>
        </linearGradient>
        <path id="H" d="M.113 1.616c.443 1.386 4.6 1.627 4.832.356C5.107 1.076 3.8.696 2.852.51 2.23.388 1.687.315 1.246.315.277.315-.19.665.112 1.616"/>
        <linearGradient id="I" x1="238.594%" x2="-10.136%" y1="-151.678%" y2="112.9%">
            <stop offset="0%" stop-color="#F60E46"/>
            <stop offset="100%" stop-color="#FFB31C"/>
        </linearGradient>
        <path id="K" d="M.407 5.408c2.907 3.919 7.182 2.68 8.779.91 1.871-2.075 2.503-4.998 2.503-4.998a14.938 14.938 0 0 0-4.49-.704C2.259.616-1.21 3.228.407 5.408"/>
        <linearGradient id="L" x1="9.4%" x2="140.894%" y1="58.996%" y2="27.882%">
            <stop offset="0%" stop-color="#36078A"/>
            <stop offset="100%" stop-color="#15B1FF"/>
        </linearGradient>
        <path id="N" d="M1.351 8.637c4.113 2.92 7.394.195 8.105-2.134.833-2.73.237-5.879.237-5.879C2.603.837-1.583 6.55 1.351 8.637"/>
        <linearGradient id="O" x1="18.809%" x2="137.627%" y1="88.017%" y2="-26.204%">
            <stop offset="0%" stop-color="#36078A"/>
            <stop offset="100%" stop-color="#15B1FF"/>
        </linearGradient>
        <path id="Q" d="M1.958 10.356c4.188.722 5.626-2.96 5.281-5.224C6.837 2.479 5.203.079 5.203.079c-5.244 3.177-6.236 9.76-3.245 10.277"/>
        <linearGradient id="R" x1="42.969%" x2="70.922%" y1="98.314%" y2="-37.85%">
            <stop offset="0%" stop-color="#36078A"/>
            <stop offset="100%" stop-color="#15B1FF"/>
        </linearGradient>
        <path id="T" d="M3.522 9.47c4.05-1.216 3.902-4.682 2.71-6.29C4.831 1.295 2.424.126 2.424.126-1.05 4.814.63 10.338 3.522 9.47"/>
        <linearGradient id="U" x1="53.233%" x2="41.144%" y1="94.992%" y2="-40.34%">
            <stop offset="0%" stop-color="#36078A"/>
            <stop offset="100%" stop-color="#15B1FF"/>
        </linearGradient>
        <path id="W" d="M2.86 24.134c12.746 13.108 26.23 5.541 30.291-2.297 4.76-9.186 4.698-20.802 4.698-20.802a47.275 47.275 0 0 0-7.174-.551C9.074.487-5.36 15.68 2.86 24.134"/>
        <linearGradient id="X" x1="13.694%" x2="140.953%" y1="72.004%" y2=".973%">
            <stop offset="0%" stop-color="#36078A"/>
            <stop offset="100%" stop-color="#15B1FF"/>
        </linearGradient>
        <path id="Z" d="M29.591 2.959c-.649.268-1.233.658-1.841 1.007-.594.37-1.23.677-1.788 1.101L24.27 6.31l-.847.625-.78.702c-2.135 1.814-4.026 3.891-5.795 6.052l-2.52 3.355-2.215 3.56c-.353.603-.752 1.18-1.067 1.803l-.94 1.874-1.875 3.746c-1.026 2.596-2.173 5.147-3.097 7.778-.841 2.66-1.797 5.286-2.542 7.972L.505 51.878l.197.045c1.077-2.608 1.939-5.25 2.91-7.854.911-2.618 2.004-5.165 2.992-7.735l3.35-7.523 1.891-3.629.938-1.816c.316-.606.711-1.159 1.061-1.739l2.107-3.482 2.38-3.277c1.623-2.151 3.424-4.158 5.339-6.047l.71-.723.772-.645 1.552-1.295c.514-.446 1.102-.768 1.65-1.163.563-.37 1.112-.779 1.712-1.082a21.865 21.865 0 0 1 7.56-3.07l.002-.202c-2.824.158-5.537 1.058-8.037 2.318"/>
        <path id="ab" d="M1.61 13.246c-2.423 6.258-.019 17.773 13.723 18.495 9.811.515 10.531-19.014-4.277-31.62 0 0-6.606 5.794-9.446 13.125"/>
        <linearGradient id="ac" x1="52.967%" x2="41.374%" y1="97.642%" y2="-39.366%">
            <stop offset="0%" stop-color="#36078A"/>
            <stop offset="100%" stop-color="#15B1FF"/>
        </linearGradient>
        <path id="ae" d="M11.754.196c.986 5.686 1.122 11.505.91 17.27-.24 5.773-.922 11.522-1.974 17.2-.27 1.418-.588 2.827-.882 4.24l-.456 2.117-.55 2.093-1.109 4.186-1.305 4.128-.653 2.063-.749 2.03-1.516 4.053c-1.056 2.683-2.275 5.3-3.404 7.954l.139.067c.703-1.263 1.39-2.54 2.048-3.83.647-1.294 1.383-2.555 1.96-3.886l1.707-4.01.84-2.013.749-2.052c.502-1.365 1-2.737 1.447-4.124l1.186-4.21.589-2.11.494-2.133c.318-1.424.663-2.844.96-4.275.951-5.767 1.641-11.592 1.664-17.443a70.922 70.922 0 0 0-.098-4.381c-.045-1.459-.16-2.915-.29-4.368-.372-2.898-.742-5.796-1.56-8.6l-.147.034z"/>
        <path id="ag" d="M4.003 36.792c19.325 17.05 37.466 4.965 42.331-6.487C52.037 16.883 50.701.562 50.701.562a67.844 67.844 0 0 0-5.113-.193C12.298.37-9.137 25.2 4.003 36.792"/>
        <linearGradient id="ah" x1="15.759%" x2="140.505%" y1="77.998%" y2="-9.734%">
            <stop offset="0%" stop-color="#36078A"/>
            <stop offset="100%" stop-color="#15B1FF"/>
        </linearGradient>
        <path id="aj" d="M43.268 14.966c-6.642 5.738-12.691 12.15-18.148 19.03-1.326 1.748-2.585 3.548-3.881 5.32-.634.894-1.307 1.763-1.911 2.679l-1.759 2.782c-1.16 1.862-2.373 3.694-3.49 5.58l-3.15 5.78-1.576 2.888-1.385 2.985-2.765 5.973c-.487.983-.87 2.012-1.26 3.036L2.76 74.09.397 80.23l.229.08c2.053-3.915 3.7-7.959 5.742-11.82l3.017-5.793 1.505-2.89 1.689-2.789a196.724 196.724 0 0 0 3.318-5.591c1.148-1.834 2.388-3.612 3.575-5.417l1.774-2.713c.603-.896 1.274-1.746 1.908-2.62 1.292-1.73 2.547-3.49 3.867-5.196l4.085-5.023c1.324-1.709 2.89-3.204 4.296-4.84.727-.797 1.41-1.639 2.173-2.401l2.283-2.297 2.282-2.306 2.357-2.225 2.365-2.227 2.471-2.109c1.623-1.444 3.363-2.73 5.071-4.076A98.746 98.746 0 0 1 65.164.55L65.07.328c-7.96 3.76-15.142 8.94-21.802 14.638"/>
        <path id="al" d="M1.476 18.094c9.03 16.437 23.916 12.34 29.785 5.534 6.878-7.975 9.712-19.635 9.712-19.635C34.847 1.27 28.801.122 23.319.122 7.725.122-3.293 9.409 1.476 18.094"/>
        <linearGradient id="am" x1="8.308%" x2="140.814%" y1="60.107%" y2="24.462%">
            <stop offset="0%" stop-color="#36078A"/>
            <stop offset="100%" stop-color="#15B1FF"/>
        </linearGradient>
        <path id="ao" d="M43.392 5.151c-5.85 2.46-11.354 5.662-16.536 9.298l-3.777 2.873c-1.284.93-2.408 2.05-3.62 3.066-2.445 2.013-4.625 4.307-6.863 6.537-1.15 1.085-2.152 2.307-3.196 3.492l-3.112 3.57c-1.962 2.469-3.837 5.01-5.76 7.51l.144.1c2.197-2.301 4.182-4.737 6.326-7.034l3.256-3.396c1.086-1.128 2.131-2.29 3.32-3.316a102.9 102.9 0 0 0 3.417-3.201c1.085-1.123 2.343-2.054 3.513-3.081 1.212-.98 2.335-2.066 3.612-2.959l3.762-2.761c5.015-3.676 10.404-6.818 16.045-9.458 1.415-.655 2.82-1.339 4.287-1.874l2.183-.854 2.226-.74A54.703 54.703 0 0 1 61.745.564l-.004-.172c-6.357.45-12.504 2.341-18.349 4.758"/>
        <path id="aq" d="M.7.609L.677.755c3.063.402 6.105.954 9.102 1.634 3.004.649 5.983 1.433 8.793 2.582l.072-.131C17.49 3.781 16.1 3.016 14.666 2.391 13.23 1.762 11.714 1.33 10.187.96 8.647.644 7.091.397 5.505.329A25.691 25.691 0 0 0 4.115.29C2.987.29 1.849.375.699.609"/>
        <linearGradient id="ar" x1="21.788%" x2="78.723%" y1="55.064%" y2="45.263%">
            <stop offset="0%" stop-color="#36078A"/>
            <stop offset="100%" stop-color="#15B1FF"/>
        </linearGradient>
        <path id="at" d="M4.074.136C2.846.255 1.616.487.408 1.01l.001.147c2.399.03 4.799.187 7.18.452 2.382.231 4.764.576 7.056 1.241l.048-.139c-.984-.842-2.14-1.381-3.315-1.783-1.179-.41-2.4-.627-3.62-.783A23.758 23.758 0 0 0 5.736.049c-.553 0-1.107.026-1.662.087"/>
        <linearGradient id="au" x1="25.082%" x2="75.409%" y1="55.208%" y2="45.96%">
            <stop offset="0%" stop-color="#36078A"/>
            <stop offset="100%" stop-color="#15B1FF"/>
        </linearGradient>
        <path id="aw" d="M.323.546c.177.95.162 1.641.14 2.336A28.95 28.95 0 0 1 .26 4.977C.152 6.423-.067 7.917.245 9.783l.149.06c.732-1.501 1.284-3.086 1.482-4.734C2.038 3.484 1.737 1.68.438.446l-.116.1z"/>
        <linearGradient id="ax" x1="44.645%" x2="53.409%" y1="91.339%" y2="2.489%">
            <stop offset="0%" stop-color="#36078A"/>
            <stop offset="100%" stop-color="#15B1FF"/>
        </linearGradient>
        <path id="az" d="M1.994.218c-.014.794-.194 1.36-.321 1.921a36.473 36.473 0 0 1-.504 1.69C.84 5.002.456 6.203.349 7.778l.082.074c.693-1.114 1.29-2.315 1.7-3.622.379-1.29.557-2.825-.05-4.075l-.087.062z"/>
        <linearGradient id="aA" x1="42.708%" x2="56.978%" y1="87.838%" y2="6.562%">
            <stop offset="0%" stop-color="#36078A"/>
            <stop offset="100%" stop-color="#15B1FF"/>
        </linearGradient>
        <path id="aC" d="M6.13 1.279L.898 17.667c-.222.696.114 1.45.785 1.752L15.18 25.5c.67.304 1.462.06 1.843-.567l8.952-14.71c.45-.74.15-1.706-.644-2.064L8.115.4a1.453 1.453 0 0 0-1.985.879"/>
        <linearGradient id="aD" x1="60.007%" x2="33.248%" y1="21.672%" y2="80.357%">
            <stop offset="0%" stop-color="#2B26CD"/>
            <stop offset="100%" stop-color="#EF1C67"/>
        </linearGradient>
        <path id="aF" d="M1.194.94L.39 3.814c-.129.46.097.945.532 1.142l20.851 9.482a.964.964 0 0 0 1.208-.352l1.623-2.5a.97.97 0 0 0-.409-1.412L2.522.32a.968.968 0 0 0-1.328.62"/>
        <linearGradient id="aG" x1="40.9%" x2="53.098%" y1="60.928%" y2="45.127%">
            <stop offset="0%" stop-color="#2B26CD"/>
            <stop offset="100%" stop-color="#EF1C67"/>
        </linearGradient>
        <path id="aI" d="M200.659.148v150.218L.276 148.607V13.484z"/>
        <linearGradient id="aJ" x1="0%" x2="100.001%" y1="50%" y2="50%">
            <stop offset="0%" stop-color="#2B26CD"/>
            <stop offset="100%" stop-color="#EF1C67"/>
        </linearGradient>
        <path id="aL" d="M.293 12.711v124.562H191.86V.575z"/>
        <path id="aN" d="M.056 1.847C.595 4.44 1.838 6.875 3.787 8.84c4.048 4.075 9.995 4.952 15.047 2.7l-2.59-6.642a6.913 6.913 0 0 1-2.606.613c-3.355.122-6.157-2.22-6.841-5.462L.056 1.847z"/>
        <linearGradient id="aO" x1="-35.544%" x2=".21%" y1="-5.37%" y2="17.664%">
            <stop offset="0%" stop-color="#FDA500"/>
            <stop offset="100%" stop-color="#EF1728"/>
        </linearGradient>
        <path id="aQ" d="M.643.986v9.97l9.283-.402V.54z"/>
        <linearGradient id="aR" x1="-102.645%" x2="55.475%" y1="-177.439%" y2="58.148%">
            <stop offset="0%" stop-color="#FDA500"/>
            <stop offset="100%" stop-color="#EF1728"/>
        </linearGradient>
        <path id="aT" d="M6.37 2.835L.256 25.385a3.364 3.364 0 0 0 2.345 4.13L135.188 65.86a3.343 3.343 0 0 0 4.106-2.36l6.114-22.55c.486-1.791-.565-3.64-2.347-4.127L10.475.476a3.315 3.315 0 0 0-.882-.12c-1.47 0-2.819.985-3.223 2.48"/>
        <linearGradient id="aU" x1="65.751%" x2="61.362%" y1="29.575%" y2="35.267%">
            <stop offset="0%" stop-color="#FDA500"/>
            <stop offset="100%" stop-color="#EF1728"/>
        </linearGradient>
        <path id="aW" d="M.035 3.9L.928.626 56.72 15.83l-.893 3.271z"/>
        <linearGradient id="aX" x1="-36.845%" x2="-292.778%" y1="55.725%" y2="72.596%">
            <stop offset="0%" stop-color="#FDA500"/>
            <stop offset="100%" stop-color="#EF1728"/>
        </linearGradient>
        <path id="aZ" d="M.334 3.413L1.226.141l55.792 15.202-.894 3.274z"/>
        <linearGradient id="ba" x1="-32.159%" x2="-288.091%" y1="55.416%" y2="72.288%">
            <stop offset="0%" stop-color="#FDA500"/>
            <stop offset="100%" stop-color="#EF1728"/>
        </linearGradient>
        <path id="bc" d="M.608 3.526L1.499.254l24.738 6.74-.893 3.274z"/>
        <linearGradient id="bd" x1="96.722%" x2="3.284%" y1="46.307%" y2="53.691%">
            <stop offset="0%" stop-color="#FDA500"/>
            <stop offset="100%" stop-color="#EF1728"/>
        </linearGradient>
        <path id="bf" d="M.066 15.253L4.178.176l15.085 4.11-4.114 15.078z"/>
        <linearGradient id="bg" x1="133.794%" x2="-621.918%" y1="33.06%" y2="185.824%">
            <stop offset="0%" stop-color="#FDA500"/>
            <stop offset="100%" stop-color="#EF1728"/>
        </linearGradient>
        <path id="bi" d="M.258 15.407L4.372.33l15.085 4.11-4.114 15.078z"/>
        <linearGradient id="bj" x1="216.795%" x2="-538.864%" y1="16.285%" y2="169.027%">
            <stop offset="0%" stop-color="#FDA500"/>
            <stop offset="100%" stop-color="#EF1728"/>
        </linearGradient>
        <path id="bl" d="M14.415.367C11.719.715 2.903 5.003 1.258 5.209c-1.086.137-1.442 1.354-.236 1.94 1.485.718 2.876.463 6.787.24 5.632-.32 6.95-.74 10.308-2.106 2.098-.85-.279-4.943-3.28-4.943-.14 0-.28.009-.422.027"/>
        <linearGradient id="bm" x1="15.193%" x2="81.685%" y1="17.084%" y2="83.953%">
            <stop offset="0%" stop-color="#36078A"/>
            <stop offset="100%" stop-color="#15B1FF"/>
        </linearGradient>
        <path id="bo" d="M3.848.643C2.13 1.595.39 4.163.43 5.473c.227 7.397.816 13.07.582 14.872-.34 2.63 4.13 4.11 4.778 2.663.546-1.222 1.38-4.15 1.667-11.586.177-4.536-.043-6.49-.163-7.885C7.12 1.515 5.655.478 4.542.477c-.257 0-.494.055-.694.166"/>
        <linearGradient id="bp" x1="45.348%" x2="61.03%" y1="2.985%" y2="154.855%">
            <stop offset="0%" stop-color="#36078A"/>
            <stop offset="100%" stop-color="#15B1FF"/>
        </linearGradient>
        <path id="br" d="M8.19 2.712C4.554 9.01 2.133 14.082.99 15.446c-1.671 1.992 1.557 5.837 2.887 5.009 1.123-.7 3.388-2.653 7.508-8.68 2.515-3.678 3.332-5.433 3.95-6.667C16.433 2.91 15.017.814 13.756.684a5.213 5.213 0 0 0-.512-.025c-1.975 0-4.461 1.03-5.053 2.053"/>
        <linearGradient id="bs" x1="60.516%" x2="40.088%" y1="-41.887%" y2="132.382%">
            <stop offset="0%" stop-color="#36078A"/>
            <stop offset="100%" stop-color="#15B1FF"/>
        </linearGradient>
        <path id="bu" d="M11.775.961c-2.849.996-4.621 3.024-5.335 5.476C3.382 16.974.21 36.6.21 36.6l20.735 3.294c.456-6.483 2.842-15.891 7.019-24.61 2.42-5.052 2.713-10.269-2.668-12.918-1.186-.585-2.683-.95-3.968-1.155L17.494.603C17.047.53 16.332.48 15.528.48c-1.252 0-2.723.123-3.753.481"/>
        <linearGradient id="bv" x1="58.712%" x2="48.4%" y1="-17.52%" y2="71.438%">
            <stop offset="0%" stop-color="#36078A"/>
            <stop offset="100%" stop-color="#15B1FF"/>
        </linearGradient>
        <path id="bx" d="M.19 13.387l21.804 3.387s2.521-4.1 2.116-12.76L2.99.734S1.285 6.605.19 13.388"/>
        <linearGradient id="by" x1="49.985%" x2="50.057%" y1="-8.602%" y2="231.601%">
            <stop offset="0%" stop-color="#00F"/>
            <stop offset="100%" stop-color="#9E005D"/>
        </linearGradient>
        <path id="bA" d="M1.061 7.432c2.722 6.287 9.764 22.3 11.382 28.664.237.944 1 .812 1.78.707.492-.067 1.658-.257 2.145-.724.26-.25.039-.945-.035-1.53-.581-4.447-4.076-25.025-8.339-31.434C6.927 1.51 5.394.769 3.984.769c-2.574 0-4.74 2.468-2.923 6.663"/>
        <linearGradient id="bB" x1="24.844%" x2="57.23%" y1="-126.158%" y2="90.517%">
            <stop offset="0%" stop-color="#00F"/>
            <stop offset="100%" stop-color="#9E005D"/>
        </linearGradient>
        <path id="bD" d="M.254 12.333C-.072 16.951 1.75 33.405 2.755 40.2c.398 2.694 7.463 6.34 7.652-3.124.087-4.198 2.095-27.19 2.145-29.424.051-2.233-.392-4.682-2.432-6.188C9.138.741 8.176.41 7.258.41 3.64.41.732 5.575.254 12.333"/>
        <linearGradient id="bE" x1="49.997%" x2="50.008%" y1="-37.573%" y2="161.36%">
            <stop offset="0%" stop-color="#00F"/>
            <stop offset="100%" stop-color="#9E005D"/>
        </linearGradient>
        <path id="bG" d="M.812 4.633c-.206 6.804.833 20.096-.795 33.146-.161 1.283 3.446 2.892 3.576 1.732.979-9.94 6.367-27.065 4.574-35.371C7.594 1.49 5.79.02 4.11.02 2.447.02.906 1.464.812 4.633"/>
        <linearGradient id="bH" x1="47.009%" x2="50.655%" y1="-118.506%" y2="94.599%">
            <stop offset="0%" stop-color="#00F"/>
            <stop offset="100%" stop-color="#9E005D"/>
        </linearGradient>
        <path id="bJ" d="M9.525.702C8.335.93 7.434 4.077 6.91 6.246 6.389 8.414 1.855 31.039.863 35.11-1.372 44.29 6.223 42.428 7.46 40c2.566-5.029 7.738-19.685 9.612-25.04C19.68 7.501 16.042.585 10.73.587c-.393 0-.794.038-1.204.115"/>
        <linearGradient id="bK" x1="49.993%" x2="50.01%" y1="-33.833%" y2="171.158%">
            <stop offset="0%" stop-color="#00F"/>
            <stop offset="100%" stop-color="#9E005D"/>
        </linearGradient>
        <path id="bM" d="M.775 2.314c1.03 1.245 1.866 1.97 5.605 3.08 5.056 1.501 7.977 2.036 10.55 2.232 2.38.18 2.073-5.237-1.007-6.134C13.32.734 3.427 1.116 1.843.65a1.39 1.39 0 0 0-.394-.06C.6.59.045 1.434.775 2.315"/>
        <linearGradient id="bN" x1="190.685%" x2="36.022%" y1="13.53%" y2="53.301%">
            <stop offset="0%" stop-color="#36078A"/>
            <stop offset="100%" stop-color="#15B1FF"/>
        </linearGradient>
        <path id="bP" d="M3.96.705C1.747 1.582 1.11 2.55.771 4.99c-.336 2.438.064 6.747 4.518 8.375 4.454 1.628 6.256-2.644 7.03-5.664.773-3.02.962-5.336-1.276-6.242C9.056.656 7.393.354 6.09.354c-.877 0-1.59.136-2.129.35"/>
        <linearGradient id="bQ" x1="-7.478%" x2="73.875%" y1="-57.236%" y2="84.1%">
            <stop offset="0%" stop-color="#00F"/>
            <stop offset="100%" stop-color="#9E005D"/>
        </linearGradient>
        <path id="bS" d="M5.525 2.832S2.25 2.869.314 1.993c0 0 1.553 4.263 4.549 4.783 2.997.52 9.61 2.093 9.894-1.353.156-1.886-2.724-3.203-3.062-4.078 0 0-.172 1.283.366 1.659 0 0-3.526-1.41-4.872-2.556 0 0 .569 1.319 1.264 1.66 0 0-3.871-1.063-5.126-1.843 0 0 .866 1.335 2.198 2.567"/>
        <linearGradient id="bT" x1="14.971%" x2="96.017%" y1="20.386%" y2="85.728%">
            <stop offset="0%" stop-color="#00F"/>
            <stop offset="100%" stop-color="#9E005D"/>
        </linearGradient>
        <path id="bV" d="M19.547.826c-.052.459-.138.945-.249 1.457.509.402.422 1.53-.227 2.598-.27.444-.597.805-.927 1.062a8.302 8.302 0 0 1-1.024 1.694c-.395.933-.876 1.477-1.796 2.115.028.179.039.365.024.556-.057.703-.125 1.465-.204 2.231.741.195 1.472.438 2.112.75 3.791 1.834 4.784 4.912 4.21 8.31a63.96 63.96 0 0 1-.059 4.243c-.314 7.366-1.226 10.266-1.823 11.476-.007.014-.02.022-.029.035a1.257 1.257 0 0 1-.708.727c-1.539.656-2.667 1.11-3.948 1.443-1.119 4.067-1.808 7.868-2.03 10.983.143 3.067-.084 5.548-.43 7.488-.133 3.098-2.037 25.29-2.12 29.42-.002.214-.027.384-.038.583 4.246 6.48 7.72 26.876 8.3 31.298.075.583.296 1.278.037 1.527-.055.052-.142.089-.21.132.07.496.23 1.163.55 2.185.524 1.673-1.303 1.769-4.388 1.71-2.881-.056-2.144-1.063-1.675-1.76.427-.629 1.163-.909 1.29-1.676.092-.552.035-.904.202-1.638-2.038-6.913-8.512-21.594-11.098-27.549a9 9 0 0 1-.435-1.239 2.113 2.113 0 0 1-.122-.428C2.016 85.643.882 75.707.421 68.782c.099-.235.201-.47.306-.706 10.448-23.352-2.294-31.418 2.367-48.284.83-3 2.252-5.805 4.121-8.37.757-.007 1.448.03 1.937.09.034-.196.077-.402.107-.588.02-.13.06-.252.092-.376a2.367 2.367 0 0 1-1.052-.526c2.996-3.653 6.904-6.765 11.248-9.196"/>
        <linearGradient id="bW" x1="48.985%" x2="51.222%" y1="87.687%" y2=".061%">
            <stop offset="0%" stop-color="#00F"/>
            <stop offset="100%" stop-color="#9E005D"/>
        </linearGradient>
        <path id="bY" d="M5.028.88C4.322 2.404.662 11.507.301 14.267c-.426 3.263 4.077 6.096 4.842 3.817.828-2.466 1.387-5.418 1.853-10.812.372-4.307.973-4.58.309-6.12-.276-.637-.767-.898-1.23-.898-.447 0-.868.242-1.047.626"/>
        <linearGradient id="bZ" x1="63.968%" x2=".527%" y1="53.82%" y2="33.113%">
            <stop offset="0%" stop-color="#36078A"/>
            <stop offset="100%" stop-color="#158C67"/>
        </linearGradient>
        <path id="cb" d="M10.673 1.228c-.895 1.581-4.895 5.699-9.627 11.416-.84 1.015-.848 4.187.11 6.064.595 1.167 3.15 1.788 4.864-.043.96-1.03 2.356-2.434 4.974-6.15 4.292-6.088 5.336-8.954 5.596-10.28.199-1.024-1.824-2.123-3.617-2.123-.956 0-1.847.313-2.3 1.116"/>
        <linearGradient id="cc" x1="53.149%" x2="-132.314%" y1="50.45%" y2="31.222%">
            <stop offset="0%" stop-color="#36078A"/>
            <stop offset="100%" stop-color="#158C67"/>
        </linearGradient>
        <path id="ce" d="M10.09.571c-1.342 0-2.922.128-4.22.53C-.03 2.92-.557 8.26 1.11 13.777 3.982 23.292 4.924 33.22 4.36 39.869H25.99s-.127-20.418-1.574-31.6c-.339-2.6-1.821-4.942-4.565-6.411C18.222.986 15.281.57 14.085.57H10.09z"/>
        <linearGradient id="cf" x1="50.002%" x2="50.002%" y1="26.391%" y2="194.307%">
            <stop offset="0%" stop-color="#36078A"/>
            <stop offset="100%" stop-color="#158C67"/>
        </linearGradient>
        <path id="ch" d="M1.606.396c-1.759 8.559.09 13.029.09 13.029h21.293c-.016-6.922 0-13.029 0-13.029H1.606z"/>
        <linearGradient id="ci" x1="50.002%" x2="50.002%" y1="801.993%" y2="98.478%">
            <stop offset="0%" stop-color="#36078A"/>
            <stop offset="100%" stop-color="#15B1FF"/>
        </linearGradient>
        <path id="ck" d="M3.033 3.14C-.32 10.308-.053 33.226.126 37.798c.024.6-.085 1.337.233 1.544.597.39 1.86.383 2.387.365.843-.024 1.667-.022 1.753-1.012.571-6.675 4.852-25.6 6.604-32.385C12.17 2.17 9.989.046 7.533.046c-1.7 0-3.53 1.019-4.5 3.094"/>
        <linearGradient id="cl" x1="50.004%" x2="50.004%" y1="177.755%" y2="-55.728%">
            <stop offset="0%" stop-color="#36078A"/>
            <stop offset="100%" stop-color="#15B1FF"/>
        </linearGradient>
        <path id="cn" d="M5.898 1.394c-2.176 1.21-2.971 3.634-3.265 5.915C2.34 9.59.74 33.305.178 37.593c-1.265 9.66 6.03 7.054 6.82 4.377 1.998-6.757 6.254-23.22 6.647-27.97C14.254 6.673 12.017.72 8.218.72c-.72 0-1.496.213-2.32.673"/>
        <linearGradient id="co" x1="50.006%" x2="50.006%" y1="239.937%" y2="27.754%">
            <stop offset="0%" stop-color="#36078A"/>
            <stop offset="100%" stop-color="#15B1FF"/>
        </linearGradient>
        <path id="cq" d="M12.347 2.627C6.862 9.46 4.044 27.88.4 37.55c-.41 1.136 3.699 1.363 4.136.1C8.998 24.791 16.064 12.984 18.992 6.587c1.77-3.865-.064-6.2-2.524-6.2-1.35 0-2.886.701-4.121 2.24"/>
        <linearGradient id="cr" x1="24.095%" x2="70.845%" y1="170.322%" y2="-56.311%">
            <stop offset="0%" stop-color="#36078A"/>
            <stop offset="100%" stop-color="#15B1FF"/>
        </linearGradient>
        <path id="ct" d="M28.995.07C24.671.259 9.449.159 7.146.253 4.845.347 1.48.63 1.02 1.786-1.278 7.559 5.37 13.48 14.04 12.251c5.796-.82 13.397-1.337 18.998-2.92C35.675 8.585 38.6.057 29.653.055c-.213 0-.432.006-.658.016"/>
        <linearGradient id="cu" x1="240.887%" x2="27.79%" y1="52.326%" y2="49.627%">
            <stop offset="0%" stop-color="#36078A"/>
            <stop offset="100%" stop-color="#15B1FF"/>
        </linearGradient>
        <path id="cw" d="M8.118 1.408c-.737.303-8.91.59-7.402 2.862C2.129 6.398 8.95 6.597 11.179 5.813c2.227-.784 2.075-5.131-1.113-5.43h-.024c-1.758 0-.478.432-1.924 1.025"/>
        <path id="cy" d="M16.9.723C15.165.88 5.124 2.344 2.5 3.475c-3.106 1.34-3.075 6.993-.644 6.489 2.628-.546 5.533-1.597 10.53-4.034 3.992-1.945 4.568-1.538 5.546-2.967.77-1.12-.081-2.244-.946-2.244a.94.94 0 0 0-.088.004"/>
        <linearGradient id="cz" x1="30.24%" x2="87.761%" y1="28.423%" y2="89.518%">
            <stop offset="0%" stop-color="#36078A"/>
            <stop offset="100%" stop-color="#158C67"/>
        </linearGradient>
        <path id="cB" d="M.82 3.805C.786 5.032 2.53 7.31 5.089 7.625c1.433.173 2.005.295 6.694.28 7.687-.02 10.743-.769 12.028-1.284 1.523-.611.197-5.25-2.534-4.998-1.868.172-10.28-.756-17.902-1.261A1.723 1.723 0 0 0 3.26.358C1.96.358.88 1.84.82 3.805"/>
        <linearGradient id="cC" x1="40.053%" x2="104.773%" y1="44.416%" y2="82.418%">
            <stop offset="0%" stop-color="#36078A"/>
            <stop offset="100%" stop-color="#158C67"/>
        </linearGradient>
        <path id="cE" d="M2.577.73C.055 1.3-.14 3.678.162 6.862c.302 3.183 1.477 7.796 6.46 6.834 4.984-.961 6.143-5.27 6.202-7.796.063-2.526-.447-3.606-2.636-4.84C9.376.603 8.109.263 6.39.263 5.3.264 4.03.4 2.577.73"/>
        <path id="cG" d="M19.9 68.963h-2.383c-.017.315-.028.626-.056.945-.358 4.242-3.862 17.807-6.064 25.478a8.613 8.613 0 0 1-.234 1.785c-1.635 6.795-5.631 25.747-6.164 32.432 0 .007-.003.012-.004.02.153.722.104 1.08.192 1.634.125.788.858 1.072 1.282 1.718.47.712 1.204 1.741-1.666 1.799-3.071.061-4.89-.039-4.368-1.75.498-1.638.61-2.397.588-2.948-.14-.31-.087-.878-.106-1.372-.166-4.579-.414-27.529 2.714-34.707.005-.015.014-.025.021-.04.017-.157.017-.292.039-.455.56-4.19 2.136-26.93 2.488-30.086-.042-2.014.121-4.56.737-7.636.548-6.573-.37-16.389-3.168-25.796-.71-2.39-1.012-4.747-.641-6.791.06-.893.25-1.664.576-2.08.109-.142.216-.271.325-.41a6.519 6.519 0 0 1 1.127-1.41c1.882-2.339 3.577-4.352 4.933-5.984-.321-.45-.524-.933-.672-1.549a8.53 8.53 0 0 1-.745-1.875 4.004 4.004 0 0 1-.746-1.22c-.473-1.181-.382-2.336.18-2.664-.136-2.487.162-4.35 1.779-5.064-.01-.313.194-.579.539-.806 1.9 2.624 3.345 5.505 4.176 8.595C19.1 25.54 6.744 33.582 16.875 56.86c1.728 3.971 2.655 8.026 3.025 12.102"/>
        <linearGradient id="cH" x1="50.96%" x2="48.843%" y1="87.688%" y2=".061%">
            <stop offset="0%" stop-color="#00F"/>
            <stop offset="100%" stop-color="#9E005D"/>
        </linearGradient>
        <path id="cJ" d="M6.096 1.926C3.56 3.801 1.763 7.317 2.388 11.192s0 7.586-.708 9.818c-.708 2.23-3.156 9.683 5.525 9.516 8.683-.169 9.224-10.447 8.224-15.712-1-5.265.826-8.971-.482-10.571C14 3.085 12.145.65 9.489.648c-1.016 0-2.149.357-3.393 1.278"/>
        <linearGradient id="cK" x1="59.78%" x2="48.457%" y1="-32.063%" y2="73.095%">
            <stop offset="0%" stop-color="#2B26CD"/>
            <stop offset="100%" stop-color="#EF1C67"/>
        </linearGradient>
        <path id="cM" d="M.932.71c-1.055.522-1.405 2.31.508 3.275 1.072.54 2.548 1.332 6.342 2.712 5.371 1.95 8.213 2.519 9.723 2.661.31.077.653.094 1.01.01 3.313-.772 4.521-1.123 8.56-3.214 2.802-1.453 3.9-.998 4.344-1.875.36-.713-.183-2.145-1.02-1.772-1.126.501-9.012 2.076-12.214 3.066-.029-.01-.055-.023-.088-.032-1.594-.438-5.981-2.543-11.89-5.138C5.731.193 4.95.064 4.08.064 3.034.064 1.861.251.932.71"/>
        <linearGradient id="cN" x1="32.299%" x2="87.76%" y1="49.834%" y2="51.435%">
            <stop offset="0%" stop-color="#36078A"/>
            <stop offset="100%" stop-color="#15B1FF"/>
        </linearGradient>
        <path id="cP" d="M1.211.332C.931.608.902 1.082.93 1.54c.029.457-.052 1.075-.473 2.477S1.506 5.59 3.985 5.54c2.317-.047 1.724-.981 1.347-1.564-.344-.53-.937-.764-1.037-1.408-.082-.52-.002-.805-.21-1.6C3.893.235 3.197.02 2.533.02c-.608 0-1.186.18-1.322.31"/>
        <path id="cR" d="M.53 3.905C.36 5.033.526 6.167.856 7.247c.371 1.209.923 2.344 1.386 3.516.186.472.358.95.517 1.431.892 2.7 1.383 5.53 1.835 8.338.33 2.064.245 4.211-.024 6.278a42.943 42.943 0 0 1-.676 3.725c-.104.467-.987 4.229-1.028 4.633h16.546c-.16-3.368-3.85-13.94-1.353-20.79 1.73-4.742-.567-4.888-2.127-8.835-.382-.967-.69-2.029-1.321-2.862-.61-.805-1.587-1.366-2.53-1.613-.503-.13-1.023-.18-1.54-.225C9.587.764 8.194.615 6.746.615c-2.803 0-5.81.562-6.218 3.29"/>
        <linearGradient id="cS" x1="44.057%" x2="54.374%" y1="3.739%" y2="90.896%">
            <stop offset="0%" stop-color="#36078A"/>
            <stop offset="100%" stop-color="#15B1FF"/>
        </linearGradient>
        <path id="cU" d="M.725.57c-1.409 7.391.07 11.254.07 11.254h17.7C18.484 5.844 17.875.57 17.875.57H.725z"/>
        <linearGradient id="cV" x1="50.731%" x2="55.743%" y1="100.952%" y2="384.948%">
            <stop offset="0%" stop-color="#F60E46"/>
            <stop offset="100%" stop-color="#9E005D"/>
        </linearGradient>
        <path id="cX" d="M2.848 3.072C.48 8.97.668 27.824.795 31.586c.016.494.257.402.514.303.755-.291 1.388-.407 1.687-.34.583.132.888.776.888.776.5-5.128 3.43-21.061 4.666-26.645C9.305 2.274 7.762.527 6.029.527c-1.202 0-2.495.837-3.181 2.545"/>
        <linearGradient id="cY" x1="49.802%" x2="50.482%" y1="-27.081%" y2="230.929%">
            <stop offset="0%" stop-color="#F60E46"/>
            <stop offset="100%" stop-color="#9E005D"/>
        </linearGradient>
        <path id="da" d="M5.337.924c-1.893.973-2.585 2.921-2.84 4.756C2.243 7.516.851 26.58.363 30.026c-1.101 7.767 5.243 5.673 5.932 3.521 1.738-5.433 5.438-18.669 5.78-22.487C12.606 5.17 10.66.383 7.356.383c-.627 0-1.301.172-2.018.541"/>
        <linearGradient id="db" x1="49.989%" x2="50.919%" y1="54.3%" y2="282.75%">
            <stop offset="0%" stop-color="#F60E46"/>
            <stop offset="100%" stop-color="#9E005D"/>
        </linearGradient>
        <path id="dd" d="M.991 3.566c-2.148 6.872 1.566 21.623 1.797 30.048.945-1.457 1.84-1.81 2.262-1.778a1.523 1.523 0 0 1 1.055.548C5.965 21.287 7.287 10.19 7.547 4.451 7.673 1.661 6.264.353 4.692.353 3.239.35 1.646 1.468.992 3.566"/>
        <linearGradient id="de" x1="49.876%" x2="50.521%" y1="-28.424%" y2="217.889%">
            <stop offset="0%" stop-color="#F60E46"/>
            <stop offset="100%" stop-color="#9E005D"/>
        </linearGradient>
        <path id="dg" d="M.276 11.588c.8 4.697 3.03 17.556 4.421 22.072.67 2.178 6.44 4.695 5.838-3.23-.267-3.514-.98-22.923-1.118-24.795C9.28 3.763 8.965 1.03 8.053.688a4.736 4.736 0 0 0-1.668-.31c-3.892 0-7.16 5.05-6.109 11.21"/>
        <linearGradient id="dh" x1="49.993%" x2="50.759%" y1="54.303%" y2="283.877%">
            <stop offset="0%" stop-color="#F60E46"/>
            <stop offset="100%" stop-color="#9E005D"/>
        </linearGradient>
        <path id="dj" d="M9.566 1.124c-.774.94-1.884 2.225-4.077 5.668C1.9 12.434.895 15.134.587 16.396c-.118.489.142.968.582 1.322.04.065.074.131.123.194 2.083 2.74 2.908 3.71 6.54 6.579 2.52 1.993 2.535 3.186 3.549 3.242.821.044 1.958-1.037 1.262-1.657-.903-.803-5.322-7.006-7.65-9.726 1.206-1.84 3.898-5.304 7.197-9.797.684-.934 1.288-3.4.795-5.247C12.809.647 12.159.13 11.376.13c-.576 0-1.226.282-1.81.995"/>
        <linearGradient id="dk" x1="54.558%" x2="48.767%" y1="13.076%" y2="90.831%">
            <stop offset="0%" stop-color="#36078A"/>
            <stop offset="100%" stop-color="#15B1FF"/>
        </linearGradient>
        <path id="dm" d="M.598 1.845C.423 3.219.433 3.293 1.738 3.303c.992.005 1.805.021 2.644.147.84.126 2.497.394 3.919-.049 1.42-.443-1.138-.679-2.346-1.182C4.748 1.715 3.876.951 3.695.621 3.482.233 3.047.039 2.57.039c-.84 0-1.816.6-1.971 1.806"/>
        <path id="do" d="M1.262 4.181c-1.294 2.298-1.123 6.387 1.027 6.4 2.153.012 10.933-5.59 9.279-7.6C10.175 1.287 8.63.661 7.158.661c-2.653 0-5.065 2.04-5.896 3.52"/>
        <linearGradient id="dp" x1="57.126%" x2="41.521%" y1="-66.816%" y2="186.313%">
            <stop offset="0%" stop-color="#2B26CD"/>
            <stop offset="100%" stop-color="#EF1C67"/>
        </linearGradient>
        <path id="dr" d="M.608 2.12c.641 1.823 3.999 1.723 4.808 3.183.503.91.174-2.16-.819-3.415C4.014 1.152 2.289.095 1.23.095.488.095.074.613.608 2.12"/>
        <linearGradient id="ds" x1="63.044%" x2="30.711%" y1="-189.71%" y2="418.128%">
            <stop offset="0%" stop-color="#2B26CD"/>
            <stop offset="100%" stop-color="#EF1C67"/>
        </linearGradient>
        <path id="du" d="M14.812 84.015l-.314 1.143a7.348 7.348 0 0 1-.186 1.464c-1.291 5.572-4.354 21.471-4.877 26.588l-.009-.018c.13.616.087.913.159 1.375.098.645.678.88 1.016 1.41.37.582.95 1.517-1.32 1.563-2.43.05-3.87-.122-3.458-1.524.413-1.402.492-2.021.464-2.478a2.69 2.69 0 0 1 .044-.734c-.067-.048-.12-.133-.125-.33-.133-3.755-.33-22.569 2.146-28.455.004-.011.012-.02.016-.032.015-.129.015-.239.033-.374.443-3.433 1.69-22.073 1.968-24.664-.033-1.652.097-3.739.584-6.262.041-.4.931-4.129 1.036-4.591.033-.15.062-.302.094-.451-.6.157-1.145.194-1.427-.075-.229-.22-.352-.576-.382-.961-.51-.474-.998-1.49-2.756-2.938C4.032 40.805 3.24 39.836 1.24 37.1c-.047-.063-.079-.129-.118-.193-.422-.354-.672-.833-.559-1.322.296-1.26 1.26-3.957 4.706-9.592.398-.648.746-1.197 1.074-1.704.188-1.194.524-2.261.726-2.9.713-2.273 1.344-6.05.713-9.995-.63-3.945 1.182-7.525 3.738-9.433.99-.739 1.908-1.119 2.754-1.246.013 4.996 1.013 10.737 4.144 17.92 8.077 18.528-1.201 38.849-3.387 54.884a45.058 45.058 0 0 0-.22 10.496M4.795 35.54c1.924 2.342 5.335 7.256 6.798 9.087.014-.004.026-.012.04-.016.385-.078.724-.168 1.042-.255.268-2.034.351-4.144.02-6.172-.393-2.408-.833-4.823-1.52-7.164-1.124-.108-1.99-.385-2.682-.768"/>
        <linearGradient id="dv" x1="50.963%" x2="48.84%" y1="87.688%" y2=".061%">
            <stop offset="0%" stop-color="#00F"/>
            <stop offset="100%" stop-color="#9E005D"/>
        </linearGradient>
    </defs>
    <g fill="none" fill-rule="evenodd">
        <g transform="translate(.5)">
            <mask id="c" fill="#fff">
                <use xlink:href="#a"/>
            </mask>
            <path fill="url(#b)" d="M370.682.04a65.82 65.82 0 0 0-10.285.866C296.93 11.182 307.654 78.104 268.34 36.8c-23.526-24.716-76.765-49.325-110.144 14.043-17.138 32.538-41.213 26.62-67.147 20.702-24.57-5.607-50.812-11.216-74.404 15.889-33.671 38.684-8.986 70.763 17.9 77.377 38.091 9.37 50.568-8.096 60.485 52.41 3.363 20.542 15.002 40.51 34.028 50.13 13.685 6.918 30.495 7.82 44.488 1.541 7.784-3.491 14.48-8.98 21.885-13.216 7.402-4.234 16.16-7.25 24.422-5.115 7.956 2.056 14.018 8.526 18.453 15.432 10.659 16.613 14.174 37.152 26.37 52.854 10.28 13.235 26.997 24.233 43.917 25.804 22.147 2.057 42.674-10.948 59.562-23.747 19.809-15.008 36.411-34.059 49.346-55.212 16.571-27.1 27.216-57.563 33.207-88.741 5.331-27.756 7.023-56.483 1.845-84.268C444.94 51.833 417.388.241 371.198.04h-.516z" mask="url(#c)"/>
        </g>
        <g transform="translate(21.5 76)">
            <mask id="f" fill="#fff">
                <use xlink:href="#d"/>
            </mask>
            <path fill="url(#e)" d="M132.008 18.589c-41.842 38.851-41.03 18.896-74.352 4.09-23.521-10.451-59.973-.92-57.345 46.71.33 5.97 1.32 11.215 2.845 15.866a47.897 47.897 0 0 0 10.882 4.161c37.809 9.314 50.4-7.83 60.286 51.063 6.654 6.654 10.7 15.433 9.993 28.442 5.835 9.76 13.982 18.033 24.303 23.258 13.695 6.934 30.518 7.838 44.52 1.546 7.79-3.5 14.49-9 21.902-13.246 7.408-4.243 16.172-7.265 24.44-5.125 7.962 2.06 14.029 8.544 18.465 15.465 10.669 16.65 14.187 37.234 26.392 52.97 10.287 13.263 27.016 24.286 43.949 25.86 22.164 2.062 42.705-10.972 59.606-23.798 15.978-12.124 29.87-26.879 41.438-43.248 3.354-11.778 5.804-23.798 7.177-35.974 2.584-22.923 1.272-46.392-4.7-68.713-5.093-19.031-12.739-40.29-30.176-51.392-13.324-8.482-31.883-9.916-46.992-6.038-17.925 4.6-32.24 17.704-49.556 23.848-7.201 2.554-15.349 3.86-22.366.839-7.287-3.135-11.994-10.343-15.012-17.675-3.02-7.332-4.802-15.184-8.522-22.185-6.69-12.587-19.55-21.5-33.553-24.206a51.394 51.394 0 0 0-9.77-.928c-16.204 0-32.022 7.425-43.854 18.41" mask="url(#f)"/>
        </g>
        <g transform="translate(2.5 113)">
            <mask id="i" fill="#fff">
                <use xlink:href="#g"/>
            </mask>
            <path fill="url(#h)" d="M.585 19.732c3.48 16.874 18.089 28.956 33.414 32.736 38.063 9.387 50.532-8.112 60.441 52.509 3.361 20.581 14.992 40.587 34.004 50.225 13.676 6.932 30.474 7.836 44.457 1.545 7.779-3.498 14.47-8.997 21.87-13.241 7.397-4.242 16.148-7.263 24.404-5.124 7.951 2.059 14.009 8.541 18.439 15.46 10.653 16.645 14.166 37.224 26.354 52.956 10.272 13.26 26.977 24.279 43.885 25.853 17.75 1.653 34.46-6.403 49.086-16.273a174.792 174.792 0 0 0 2.109-16.154c1.664-20.067 1.643-43.157-11.292-59.85-9.88-12.752-27.224-20.53-43.081-22.004-10.336-.96-20.51.924-30.691 2.807-8.35 1.544-16.706 3.089-25.158 3.063-7.8-.023-16.08-1.575-21.786-6.9-5.923-5.53-7.963-14.088-8.338-22.182-.372-8.096.62-16.264-.542-24.283-2.093-14.418-11.38-27.426-23.904-34.854-17.415-10.332-39.366-9.455-57.567-1.66-53.603 22.964-45.945 4.043-72.869-21.687C55.992 5.194 44.892.22 33.568.22 21.623.222 9.431 5.76.585 19.732" mask="url(#i)"/>
        </g>
        <g transform="translate(109.5 40)">
            <mask id="l" fill="#fff">
                <use xlink:href="#j"/>
            </mask>
            <path fill="url(#k)" d="M17.36 1.319c-6.202 2.921-.388 10.457-6.883 11.815-6.495 1.358-5.67 6.803-4.072 9.569 2.67 4.624-3.014 1.912-5.552 7.368-1.77 3.802.942 7.373 5.094 10.306 5.62 3.97 11.191 4.713 17.989.74 6.623-3.87 10.764-5.892 7.354-11.43-1.652-2.68-7.848-4.468-2.782-8.538 3.623-2.911 2.182-7.552-1.604-9.375-5.131-2.473-3.256-3.143-3.116-6.823C23.866 2.944 22.556.66 19.972.66c-.76.001-1.633.199-2.612.66" mask="url(#l)"/>
        </g>
        <g transform="translate(88.5 36)">
            <mask id="o" fill="#fff">
                <use xlink:href="#m"/>
            </mask>
            <path fill="url(#n)" d="M3.472 7.129c1.756 4.15 4.233 4.097-.685 9.17C-.84 20.042-.517 25.985 4.97 27.732c7.67 2.443 1.213 7.2.446 10.989-1.584 7.829 4.122 8.332 13.52 9.865 9.65 1.573 15.828-1.714 20.668-8.719 3.576-5.17 5.194-10.446 1.487-14.022-5.324-5.134-10.78.455-9.663-6.003.667-3.866-.722-10.458-8.888-9.172C14.376 11.956 17.899.79 9.402.16 9.13.138 8.87.13 8.617.13 3.39.13 2.29 4.333 3.472 7.128" mask="url(#o)"/>
        </g>
        <g transform="translate(109.5 65)">
            <mask id="r" fill="#fff">
                <use xlink:href="#p"/>
            </mask>
            <path fill="url(#q)" d="M4.048 9.304c-4.796 9.364-5.932 15.47 1.676 15.22 7.606-.252 14.733-20.638 8.67-23.586a4.014 4.014 0 0 0-1.773-.424C9.083.513 6.013 5.467 4.048 9.304" mask="url(#r)"/>
        </g>
        <g transform="translate(102.5 80)">
            <mask id="u" fill="#fff">
                <use xlink:href="#s"/>
            </mask>
            <path fill="url(#t)" d="M32.353.069L1.287 4.139a.853.853 0 0 0-.713 1.093L7.283 27.24c.613 2.015 2.61 3.291 4.714 3.015l16.86-2.208c2.103-.276 3.697-2.023 3.763-4.126L33.33.942a.86.86 0 0 0-.861-.88.844.844 0 0 0-.116.007" mask="url(#u)"/>
        </g>
        <g transform="translate(94.5 60)">
            <mask id="x" fill="#fff">
                <use xlink:href="#v"/>
            </mask>
            <path fill="url(#w)" d="M.17 1.517c-1.34 2.344 10.867 5.719 13.998 3.71C17.301 3.22 12.731 1.589 7.378.68 6.246.489 4.888.306 3.646.306 2.08.306.697.594.17 1.516" mask="url(#x)"/>
        </g>
        <g transform="translate(98.5 39)">
            <mask id="A" fill="#fff">
                <use xlink:href="#y"/>
            </mask>
            <path fill="url(#z)" d="M1.232.343c-1.51.699-.535 2.742.304 4.13 1.76 2.915 3.325 4.313 4.843 2.35C7.773 5.022 4.066.226 1.797.225c-.202 0-.39.037-.565.118" mask="url(#A)"/>
        </g>
        <g transform="translate(127.5 43)">
            <mask id="D" fill="#fff">
                <use xlink:href="#B"/>
            </mask>
            <path fill="url(#C)" d="M.794 3.347c-.79 3.19-.705 5.13 1.561 4.527C4.622 7.272 5.346.56 3.32.08a1.358 1.358 0 0 0-.301-.036c-1.23 0-1.875 1.895-2.225 3.303" mask="url(#D)"/>
        </g>
        <g transform="translate(132.5 56)">
            <mask id="G" fill="#fff">
                <use xlink:href="#E"/>
            </mask>
            <path fill="url(#F)" d="M.664 7.107C1.8 8.08 3.4 6.513 4.434 5.299 6.6 2.756 7.408.945 5.083.441a1.405 1.405 0 0 0-.296-.03C2.462.41-.882 5.783.664 7.106" mask="url(#G)"/>
        </g>
        <g transform="translate(106.5 58)">
            <mask id="J" fill="#fff">
                <use xlink:href="#H"/>
            </mask>
            <path fill="url(#I)" d="M.113 1.616c.443 1.386 4.6 1.627 4.832.356C5.107 1.076 3.8.696 2.852.51 2.23.388 1.687.315 1.246.315.277.315-.19.665.112 1.616" mask="url(#J)"/>
        </g>
        <g transform="translate(234.5 81)">
            <mask id="M" fill="#fff">
                <use xlink:href="#K"/>
            </mask>
            <path fill="url(#L)" d="M.407 5.408c2.907 3.919 7.182 2.68 8.779.91 1.871-2.075 2.503-4.998 2.503-4.998a14.938 14.938 0 0 0-4.49-.704C2.259.616-1.21 3.228.407 5.408" mask="url(#M)"/>
        </g>
        <g transform="translate(230.5 77)">
            <mask id="P" fill="#fff">
                <use xlink:href="#N"/>
            </mask>
            <path fill="url(#O)" d="M1.351 8.637c4.113 2.92 7.394.195 8.105-2.134.833-2.73.237-5.879.237-5.879C2.603.837-1.583 6.55 1.351 8.637" mask="url(#P)"/>
        </g>
        <g transform="translate(227.5 74)">
            <mask id="S" fill="#fff">
                <use xlink:href="#Q"/>
            </mask>
            <path fill="url(#R)" d="M1.958 10.356c4.188.722 5.626-2.96 5.281-5.224C6.837 2.479 5.203.079 5.203.079c-5.244 3.177-6.236 9.76-3.245 10.277" mask="url(#S)"/>
        </g>
        <g transform="translate(224.5 73)">
            <mask id="V" fill="#fff">
                <use xlink:href="#T"/>
            </mask>
            <path fill="url(#U)" d="M3.522 9.47c4.05-1.216 3.902-4.682 2.71-6.29C4.831 1.295 2.424.126 2.424.126-1.05 4.814.63 10.338 3.522 9.47" mask="url(#V)"/>
        </g>
        <g transform="translate(225.5 43)">
            <mask id="Y" fill="#fff">
                <use xlink:href="#W"/>
            </mask>
            <path fill="url(#X)" d="M2.86 24.134c12.746 13.108 26.23 5.541 30.291-2.297 4.76-9.186 4.698-20.802 4.698-20.802a47.275 47.275 0 0 0-7.174-.551C9.074.487-5.36 15.68 2.86 24.134" mask="url(#Y)"/>
        </g>
        <g transform="translate(221.5 45)">
            <mask id="aa" fill="#fff">
                <use xlink:href="#Z"/>
            </mask>
            <path d="M29.591 2.959c-.649.268-1.233.658-1.841 1.007-.594.37-1.23.677-1.788 1.101L24.27 6.31l-.847.625-.78.702c-2.135 1.814-4.026 3.891-5.795 6.052l-2.52 3.355-2.215 3.56c-.353.603-.752 1.18-1.067 1.803l-.94 1.874-1.875 3.746c-1.026 2.596-2.173 5.147-3.097 7.778-.841 2.66-1.797 5.286-2.542 7.972L.505 51.878l.197.045c1.077-2.608 1.939-5.25 2.91-7.854.911-2.618 2.004-5.165 2.992-7.735l3.35-7.523 1.891-3.629.938-1.816c.316-.606.711-1.159 1.061-1.739l2.107-3.482 2.38-3.277c1.623-2.151 3.424-4.158 5.339-6.047l.71-.723.772-.645 1.552-1.295c.514-.446 1.102-.768 1.65-1.163.563-.37 1.112-.779 1.712-1.082a21.865 21.865 0 0 1 7.56-3.07l.002-.202c-2.824.158-5.537 1.058-8.037 2.318" mask="url(#aa)"/>
        </g>
        <g transform="translate(224.5 28)">
            <mask id="ad" fill="#fff">
                <use xlink:href="#ab"/>
            </mask>
            <path fill="url(#ac)" d="M1.61 13.246c-2.423 6.258-.019 17.773 13.723 18.495 9.811.515 10.531-19.014-4.277-31.62 0 0-6.606 5.794-9.446 13.125" mask="url(#ad)"/>
        </g>
        <g transform="translate(224.5 31)">
            <mask id="af" fill="#fff">
                <use xlink:href="#ae"/>
            </mask>
            <path d="M11.754.196c.986 5.686 1.122 11.505.91 17.27-.24 5.773-.922 11.522-1.974 17.2-.27 1.418-.588 2.827-.882 4.24l-.456 2.117-.55 2.093-1.109 4.186-1.305 4.128-.653 2.063-.749 2.03-1.516 4.053c-1.056 2.683-2.275 5.3-3.404 7.954l.139.067c.703-1.263 1.39-2.54 2.048-3.83.647-1.294 1.383-2.555 1.96-3.886l1.707-4.01.84-2.013.749-2.052c.502-1.365 1-2.737 1.447-4.124l1.186-4.21.589-2.11.494-2.133c.318-1.424.663-2.844.96-4.275.951-5.767 1.641-11.592 1.664-17.443a70.922 70.922 0 0 0-.098-4.381c-.045-1.459-.16-2.915-.29-4.368-.372-2.898-.742-5.796-1.56-8.6l-.147.034z" mask="url(#af)"/>
        </g>
        <g transform="translate(244.5 15)">
            <mask id="ai" fill="#fff">
                <use xlink:href="#ag"/>
            </mask>
            <path fill="url(#ah)" d="M4.003 36.792c19.325 17.05 37.466 4.965 42.331-6.487C52.037 16.883 50.701.562 50.701.562a67.844 67.844 0 0 0-5.113-.193C12.298.37-9.137 25.2 4.003 36.792" mask="url(#ai)"/>
        </g>
        <g transform="translate(225.5 18)">
            <mask id="ak" fill="#fff">
                <use xlink:href="#aj"/>
            </mask>
            <path d="M43.268 14.966c-6.642 5.738-12.691 12.15-18.148 19.03-1.326 1.748-2.585 3.548-3.881 5.32-.634.894-1.307 1.763-1.911 2.679l-1.759 2.782c-1.16 1.862-2.373 3.694-3.49 5.58l-3.15 5.78-1.576 2.888-1.385 2.985-2.765 5.973c-.487.983-.87 2.012-1.26 3.036L2.76 74.09.397 80.23l.229.08c2.053-3.915 3.7-7.959 5.742-11.82l3.017-5.793 1.505-2.89 1.689-2.789a196.724 196.724 0 0 0 3.318-5.591c1.148-1.834 2.388-3.612 3.575-5.417l1.774-2.713c.603-.896 1.274-1.746 1.908-2.62 1.292-1.73 2.547-3.49 3.867-5.196l4.085-5.023c1.324-1.709 2.89-3.204 4.296-4.84.727-.797 1.41-1.639 2.173-2.401l2.283-2.297 2.282-2.306 2.357-2.225 2.365-2.227 2.471-2.109c1.623-1.444 3.363-2.73 5.071-4.076A98.746 98.746 0 0 1 65.164.55L65.07.328c-7.96 3.76-15.142 8.94-21.802 14.638" mask="url(#ak)"/>
        </g>
        <g transform="translate(249.5 53)">
            <mask id="an" fill="#fff">
                <use xlink:href="#al"/>
            </mask>
            <path fill="url(#am)" d="M1.476 18.094c9.03 16.437 23.916 12.34 29.785 5.534 6.878-7.975 9.712-19.635 9.712-19.635C34.847 1.27 28.801.122 23.319.122 7.725.122-3.293 9.409 1.476 18.094" mask="url(#an)"/>
        </g>
        <g transform="translate(225.5 57)">
            <mask id="ap" fill="#fff">
                <use xlink:href="#ao"/>
            </mask>
            <path d="M43.392 5.151c-5.85 2.46-11.354 5.662-16.536 9.298l-3.777 2.873c-1.284.93-2.408 2.05-3.62 3.066-2.445 2.013-4.625 4.307-6.863 6.537-1.15 1.085-2.152 2.307-3.196 3.492l-3.112 3.57c-1.962 2.469-3.837 5.01-5.76 7.51l.144.1c2.197-2.301 4.182-4.737 6.326-7.034l3.256-3.396c1.086-1.128 2.131-2.29 3.32-3.316a102.9 102.9 0 0 0 3.417-3.201c1.085-1.123 2.343-2.054 3.513-3.081 1.212-.98 2.335-2.066 3.612-2.959l3.762-2.761c5.015-3.676 10.404-6.818 16.045-9.458 1.415-.655 2.82-1.339 4.287-1.874l2.183-.854 2.226-.74A54.703 54.703 0 0 1 61.745.564l-.004-.172c-6.357.45-12.504 2.341-18.349 4.758" mask="url(#ap)"/>
        </g>
        <g transform="translate(266.5 42)">
            <mask id="as" fill="#fff">
                <use xlink:href="#aq"/>
            </mask>
            <path fill="url(#ar)" d="M.7.609L.677.755c3.063.402 6.105.954 9.102 1.634 3.004.649 5.983 1.433 8.793 2.582l.072-.131C17.49 3.781 16.1 3.016 14.666 2.391 13.23 1.762 11.714 1.33 10.187.96 8.647.644 7.091.397 5.505.329A25.691 25.691 0 0 0 4.115.29C2.987.29 1.849.375.699.609" mask="url(#as)"/>
        </g>
        <g transform="translate(274.5 34)">
            <mask id="av" fill="#fff">
                <use xlink:href="#at"/>
            </mask>
            <path fill="url(#au)" d="M4.074.136C2.846.255 1.616.487.408 1.01l.001.147c2.399.03 4.799.187 7.18.452 2.382.231 4.764.576 7.056 1.241l.048-.139c-.984-.842-2.14-1.381-3.315-1.783-1.179-.41-2.4-.627-3.62-.783A23.758 23.758 0 0 0 5.736.049c-.553 0-1.107.026-1.662.087" mask="url(#av)"/>
        </g>
        <g transform="translate(259.5 27)">
            <mask id="ay" fill="#fff">
                <use xlink:href="#aw"/>
            </mask>
            <path fill="url(#ax)" d="M.323.546c.177.95.162 1.641.14 2.336A28.95 28.95 0 0 1 .26 4.977C.152 6.423-.067 7.917.245 9.783l.149.06c.732-1.501 1.284-3.086 1.482-4.734C2.038 3.484 1.737 1.68.438.446l-.116.1z" mask="url(#ay)"/>
        </g>
        <g transform="translate(269.5 22)">
            <mask id="aB" fill="#fff">
                <use xlink:href="#az"/>
            </mask>
            <path fill="url(#aA)" d="M1.994.218c-.014.794-.194 1.36-.321 1.921a36.473 36.473 0 0 1-.504 1.69C.84 5.002.456 6.203.349 7.778l.082.074c.693-1.114 1.29-2.315 1.7-3.622.379-1.29.557-2.825-.05-4.075l-.087.062z" mask="url(#aB)"/>
        </g>
        <g transform="translate(217.5 78)">
            <mask id="aE" fill="#fff">
                <use xlink:href="#aC"/>
            </mask>
            <path fill="url(#aD)" d="M6.13 1.279L.898 17.667c-.222.696.114 1.45.785 1.752L15.18 25.5c.67.304 1.462.06 1.843-.567l8.952-14.71c.45-.74.15-1.706-.644-2.064L8.115.4a1.453 1.453 0 0 0-1.985.879" mask="url(#aE)"/>
        </g>
        <g transform="translate(221.5 76)">
            <mask id="aH" fill="#fff">
                <use xlink:href="#aF"/>
            </mask>
            <path fill="url(#aG)" d="M1.194.94L.39 3.814c-.129.46.097.945.532 1.142l20.851 9.482a.964.964 0 0 0 1.208-.352l1.623-2.5a.97.97 0 0 0-.409-1.412L2.522.32a.968.968 0 0 0-1.328.62" mask="url(#aH)"/>
        </g>
        <g transform="translate(90.5 59)">
            <mask id="aK" fill="#fff">
                <use xlink:href="#aI"/>
            </mask>
            <path fill="url(#aJ)" d="M200.659.148v150.218L.276 148.607V13.484z" mask="url(#aK)"/>
        </g>
        <g transform="translate(83.5 66)">
            <mask id="aM" fill="#fff">
                <use xlink:href="#aL"/>
            </mask>
            <path d="M.293 12.711v124.562H191.86V.575z" mask="url(#aM)"/>
        </g>
        <path fill="#46CCCC" d="M134.186 157.945l40.632-.942v-56.116l-40.632 2.053z"/>
        <path fill="#7BCAFF" d="M139.994 137.814l-47.366 1.567v-50.8l47.366-2.79z"/>
        <path fill="#3A7BD8" d="M130.986 112.355c0 8.966-6.725 16.488-14.957 16.8-8.164.309-14.735-6.604-14.735-15.437 0-8.833 6.57-16.348 14.735-16.789 8.232-.444 14.957 6.461 14.957 15.426"/>
        <path fill="#EFF4F4" d="M127.34 112.52c0 4.065-1.82 7.733-4.625 10.082a11.598 11.598 0 0 1-2.734 1.72 11.29 11.29 0 0 1-2.204.714 10.37 10.37 0 0 1-5.082-.196c-4.559-1.356-7.85-5.837-7.85-11.287 0-1.898.4-3.707 1.112-5.338.865-2.005 2.208-3.743 3.865-5.022a12 12 0 0 1 1.215-.833c.91-.54 1.892-.952 2.925-1.214a10.607 10.607 0 0 1 2.067-.315c4.788-.25 8.899 2.784 10.537 7.286.503 1.349.775 2.837.775 4.403"/>
        <path fill="#A9C3EA" d="M116.03 114.428c-.763 0-1.38-.62-1.38-1.386v-7.819c0-.764.617-1.385 1.38-1.385.761 0 1.379.62 1.379 1.385v7.819c0 .766-.618 1.386-1.38 1.386"/>
        <path fill="#A9C3EA" d="M116.03 114.428c-.426 0-.849-.198-1.118-.574a1.391 1.391 0 0 1 .309-1.936l3.747-2.723a1.375 1.375 0 0 1 1.926.31 1.39 1.39 0 0 1-.309 1.937l-3.747 2.723a1.365 1.365 0 0 1-.807.263"/>
        <path fill="#7BCAFF" d="M269.473 195.727l-189.475.774V73.144l189.475-12.727z"/>
        <g transform="translate(137.5 123)">
            <mask id="aP" fill="#fff">
                <use xlink:href="#aN"/>
            </mask>
            <path fill="url(#aO)" d="M.056 1.847C.595 4.44 1.838 6.875 3.787 8.84c4.048 4.075 9.995 4.952 15.047 2.7l-2.59-6.642a6.913 6.913 0 0 1-2.606.613c-3.355.122-6.157-2.22-6.841-5.462L.056 1.847z" mask="url(#aP)"/>
        </g>
        <path fill="#EDF4FC" d="M160.406 130.892c-.107.116-.218.229-.328.34l-4.62-5.06a7.708 7.708 0 0 0 2.152-5.357c0-3.985-3.045-7.08-6.79-6.914-2.66.118-4.957 1.85-6.055 4.27l-5.973-2.89a15.06 15.06 0 0 1 2.532-3.891c5.231-5.825 13.78-6.241 19.082-.875 5.334 5.397 5.33 14.548 0 20.377"/>
        <path fill="#BAF4D5" d="M144.07 121.37c0 .528.054 1.039.154 1.525l-6.498 1.778c-.64-3.09-.29-6.414 1.067-9.391l5.973 2.888a7.696 7.696 0 0 0-.696 3.2"/>
        <path fill="#D1D9FE" d="M160.077 131.231a13.964 13.964 0 0 1-4.248 3.014l-2.498-6.56a7.07 7.07 0 0 0 2.126-1.513l4.62 5.06z"/>
        <path fill="#A6EDC8" d="M163.195 137.827v-1.405l-2.658.088v1.404zM167.916 137.674v-1.409l-2.67.089v1.407zM172.66 137.52v-1.412l-2.683.089v1.41z"/>
        <path fill="#EDF4FC" d="M170.812 111.46c-.871-.326-1.9-.09-2.601.682-.34.372-.558.819-.651 1.283l1.172.218c.119-.58.606-1.03 1.185-1.056.16-.007.31.018.45.071l.445-1.198z"/>
        <path fill="#FFC550" d="M171.627 111.987l-.06-.056-.822.963c.236.223.385.548.385.916 0 .705-.544 1.3-1.213 1.329-.477.02-.889-.251-1.087-.665l-1.078.608c.114.239.265.46.458.654.941.952 2.473.886 3.417-.148.945-1.036.943-2.649 0-3.6"/>
        <path fill="#FFC550" d="M168.704 113.917c0-.094.011-.185.03-.274l-1.174-.218a2.614 2.614 0 0 0 .192 1.657l1.078-.607a1.275 1.275 0 0 1-.126-.558"/>
        <path fill="#BAF4D5" d="M171.568 111.932a2.233 2.233 0 0 0-.756-.473l-.446 1.199c.142.052.27.132.379.237l.823-.963zM167.7 130.345c.37.892 1.223 1.494 2.217 1.459a2.38 2.38 0 0 0 1.305-.45l-.65-1.043a1.16 1.16 0 0 1-1.768-.507l-1.104.541z"/>
        <path fill="#D1D9FE" d="M167.504 129.349l.002.083 1.2-.085c-.011-.34.108-.689.355-.958.472-.515 1.24-.544 1.714-.063.337.342.434.851.29 1.302l1.14.366c.086-.26.13-.537.13-.822 0-1.407-1.084-2.506-2.417-2.456-1.335.051-2.414 1.23-2.414 2.633"/>
        <path fill="#EDF4FC" d="M170.775 130.132a1.303 1.303 0 0 1-.203.179l.65 1.044c.457-.324.808-.803.985-1.362l-1.141-.365a1.322 1.322 0 0 1-.291.504"/>
        <path fill="#FFC550" d="M167.506 129.432c.009.325.078.633.195.914l1.102-.541a1.31 1.31 0 0 1-.097-.458l-1.2.085z"/>
        <path fill="#D1D9FE" d="M170.872 123.861c.862-.425 1.464-1.348 1.464-2.397 0-.506-.14-.972-.385-1.358l-1.013.724c.302.484.247 1.15-.163 1.6a1.277 1.277 0 0 1-.38.285l.477 1.146z"/>
        <path fill="#BAF4D5" d="M169.917 124.105l.08-.005-.04-1.264a1.136 1.136 0 0 1-.897-.339c-.474-.479-.474-1.286 0-1.803a1.196 1.196 0 0 1 1.246-.356l.387-1.217a2.237 2.237 0 0 0-.777-.104c-1.332.057-2.413 1.238-2.413 2.64 0 1.405 1.08 2.5 2.414 2.448"/>
        <path fill="#FFC550" d="M170.775 120.623c.063.065.117.134.162.207l1.014-.725a2.29 2.29 0 0 0-1.258-.984l-.387 1.216c.17.053.332.148.469.286"/>
        <path fill="#EDF4FC" d="M169.997 124.1c.31-.022.605-.106.876-.239l-.478-1.146c-.14.07-.288.108-.437.12l.04 1.265z"/>
        <path fill="#D3D3D3" d="M275.357 67.277L83.791 79.439V61.43L275.357 47.51z"/>
        <path fill="#F2F2F2" d="M271.478 63.387L87.023 75.454v-5.953l184.455-12.623z"/>
        <path fill="#F9F4EA" d="M89.847 67.3l-2.823.196v-3.094l2.823-.2zM94.886 66.95l-2.838.197v-3.102l2.838-.201zM99.952 66.598l-2.853.198v-3.109l2.853-.202z"/>
        <path fill="#7BCAFF" d="M168.711 184.79l93.801-.89V75.215l-93.801 5.644z"/>
        <path fill="#BBCEFF" d="M265.085 81.117c-.03 0-.058 0-.087.003l-83.671 4.823c-.753.043-1.364.732-1.364 1.533v14.227c0 .39.145.745.409.995.238.229.573.345.888.33l83.671-4.08a1.628 1.628 0 0 0 1.525-1.611V82.504a1.38 1.38 0 0 0-.428-1.019 1.352 1.352 0 0 0-.943-.368m-83.888 23.167a2.427 2.427 0 0 1-1.69-.678 2.597 2.597 0 0 1-.797-1.903V87.476c0-1.455 1.142-2.705 2.544-2.786l83.672-4.823a2.636 2.636 0 0 1 1.963.706c.529.5.82 1.185.82 1.931v14.833c0 1.506-1.218 2.79-2.716 2.865l-83.672 4.08a3.773 3.773 0 0 1-.124.002M265.06 106.28c-.023 0-.046 0-.07.002l-83.672 3.843c-.746.034-1.356.712-1.356 1.509v14.228c0 .392.147.75.412 1.005.24.232.535.334.893.343l83.672-3.1a1.597 1.597 0 0 0 1.518-1.586v-14.833c0-.399-.153-.764-.43-1.029a1.38 1.38 0 0 0-.966-.382m-83.842 22.184a2.45 2.45 0 0 1-1.715-.694 2.62 2.62 0 0 1-.795-1.908v-14.228c0-1.459 1.145-2.698 2.552-2.762l83.672-3.843a2.623 2.623 0 0 1 1.959.725 2.65 2.65 0 0 1 .818 1.937v14.833c0 1.51-1.223 2.783-2.726 2.84l-83.67 3.099-.095.001M265.035 131.443l-.052.001-83.672 2.863c-.744.024-1.348.691-1.348 1.486v14.228c0 .394.146.755.415 1.015.244.24.595.353.896.354l83.672-2.118a1.566 1.566 0 0 0 1.51-1.561v-14.833c0-.4-.153-.77-.432-1.04a1.415 1.415 0 0 0-.989-.395m-83.795 21.203a2.472 2.472 0 0 1-1.737-.712 2.644 2.644 0 0 1-.793-1.913v-14.228c0-1.463 1.149-2.693 2.559-2.74l83.672-2.863c.737-.004 1.43.24 1.953.746a2.68 2.68 0 0 1 .815 1.942v14.833c0 1.514-1.224 2.777-2.731 2.814l-83.672 2.12-.066.001M181.282 175.573l.008.627-.008-.627 83.672-1.14a1.535 1.535 0 0 0 1.502-1.535v-14.832c0-.402-.155-.775-.437-1.05-.277-.273-.703-.412-1.043-.41l-83.67 1.883c-.74.016-1.344.674-1.344 1.464v14.225c0 .396.15.76.419 1.026.245.243.502.371.901.369zm-.019 1.254c-.66 0-1.286-.257-1.763-.728a2.672 2.672 0 0 1-.79-1.92v-14.226c0-1.468 1.151-2.686 2.567-2.719l83.67-1.883c.739.013 1.427.256 1.95.767.523.514.812 1.205.812 1.948v14.832c0 1.517-1.229 2.77-2.74 2.79l-83.67 1.14h-.036z"/>
        <path fill="#7BCAFF" d="M221.368 140.545l36.18-1.096v-2.904l-36.18 1.146zM233.054 145.296l24.493-.684v-2.905l-24.493.717zM224.237 145.542l6.01-.169v-2.866l-6.01.175zM221.368 91.835l36.18-1.933v-2.905l-36.18 1.984zM235.869 96.171l21.68-1.106V92.16l-21.68 1.137zM210.634 97.46l22.421-1.144v-2.872l-22.42 1.175zM242.952 164.796l14.596-.272v-2.903l-14.596.29zM225.897 165.112l14.363-.267v-2.881l-14.363.286zM233.054 170.084l24.493-.396v-2.905l-24.493.429zM206.72 170.51l23.527-.38v-2.868l-23.527.412z"/>
        <path fill="#F6F3FF" d="M185.514 124.156l84.021-3.255a2.238 2.238 0 0 0 2.129-2.222v-14.865c0-1.18-.954-2.092-2.129-2.036l-84.021 4.003c-1.085.05-1.964 1.01-1.964 2.143v14.257c0 1.133.879 2.016 1.964 1.975"/>
        <g fill="#7BCAFF">
            <path d="M230.936 108.916l36.147-1.631v-2.17l-36.147 1.668zM230.936 112.706l36.147-1.567v-2.168l-36.147 1.603zM250.904 115.667l16.179-.672v-2.168l-16.179.689z"/>
        </g>
        <g transform="translate(199.5 107)">
            <mask id="aS" fill="#fff">
                <use xlink:href="#aQ"/>
            </mask>
            <path fill="url(#aR)" d="M.643.986v9.97l9.283-.402V.54z" mask="url(#aS)"/>
        </g>
        <path fill="#7BCAFF" d="M189.5 118l9-.383V108l-9 .425z"/>
        <g transform="translate(96.5 132)">
            <mask id="aV" fill="#fff">
                <use xlink:href="#aT"/>
            </mask>
            <path fill="url(#aU)" d="M6.37 2.835L.256 25.385a3.364 3.364 0 0 0 2.345 4.13L135.188 65.86a3.343 3.343 0 0 0 4.106-2.36l6.114-22.55c.486-1.791-.565-3.64-2.347-4.127L10.475.476a3.315 3.315 0 0 0-.882-.12c-1.47 0-2.819.985-3.223 2.48" mask="url(#aV)"/>
        </g>
        <g transform="translate(178.135 156.74)">
            <mask id="aY" fill="#fff">
                <use xlink:href="#aW"/>
            </mask>
            <path fill="url(#aX)" d="M.035 3.9l55.791 15.201.893-3.27L.93.625z" mask="url(#aY)"/>
        </g>
        <g transform="translate(176.25 163.044)">
            <mask id="bb" fill="#fff">
                <use xlink:href="#aZ"/>
            </mask>
            <path fill="url(#ba)" d="M.334 3.413l55.79 15.204.894-3.274L1.226.141z" mask="url(#bb)"/>
        </g>
        <g transform="translate(205.442 177.211)">
            <mask id="be" fill="#fff">
                <use xlink:href="#bc"/>
            </mask>
            <path fill="url(#bd)" d="M.608 3.526l24.736 6.742.893-3.274L1.5.254z" mask="url(#be)"/>
        </g>
        <g transform="translate(126.25 143.938)">
            <mask id="bh" fill="#fff">
                <use xlink:href="#bf"/>
            </mask>
            <path fill="url(#bg)" d="M.066 15.253l15.083 4.11 4.114-15.076L4.178.177z" mask="url(#bh)"/>
        </g>
        <g transform="translate(108.5 139)">
            <mask id="bk" fill="#fff">
                <use xlink:href="#bi"/>
            </mask>
            <path fill="url(#bj)" d="M.258 15.407l15.085 4.11 4.114-15.076L4.372.33z" mask="url(#bk)"/>
        </g>
        <path fill="#D8D8D8" d="M250.427 289.166c0 .873-10.536 1.582-23.53 1.582-12.998 0-23.533-.709-23.533-1.582 0-.873 10.535-1.58 23.532-1.58 12.995 0 23.531.707 23.531 1.58"/>
        <g transform="translate(228.5 198)">
            <mask id="bn" fill="#fff">
                <use xlink:href="#bl"/>
            </mask>
            <path fill="url(#bm)" d="M14.415.367C11.719.715 2.903 5.003 1.258 5.209c-1.086.137-1.442 1.354-.236 1.94 1.485.718 2.876.463 6.787.24 5.632-.32 6.95-.74 10.308-2.106 2.098-.85-.279-4.943-3.28-4.943-.14 0-.28.009-.422.027" mask="url(#bn)"/>
        </g>
        <g transform="translate(242.5 180)">
            <mask id="bq" fill="#fff">
                <use xlink:href="#bo"/>
            </mask>
            <path fill="url(#bp)" d="M3.848.643C2.13 1.595.39 4.163.43 5.473c.227 7.397.816 13.07.582 14.872-.34 2.63 4.13 4.11 4.778 2.663.546-1.222 1.38-4.15 1.667-11.586.177-4.536-.043-6.49-.163-7.885C7.12 1.515 5.655.478 4.542.477c-.257 0-.494.055-.694.166" mask="url(#bq)"/>
        </g>
        <path fill="#4E11F4" d="M242.714 284.674c-.257.947-.16 1.286-.26 1.905-.127.766-.86 1.044-1.286 1.673-.468.695-1.203 1.698 1.669 1.754 3.073.058 4.894-.037 4.372-1.705-.522-1.667-.622-2.403-.587-2.946.035-.543 0-1.11-.349-1.437-.348-.324-3.107-.911-3.56.756M211.32 286.066c-.242.449-1.394 1.488-2.99 2.173-1.595.684-4.978 1.005-3.098 1.608 1.878.602 4.069.236 5.179.065 1.108-.172 2.186-.193 3.495-.202 1.723-.01 1.737-.113 1.506-1.98-.32-2.573-3.316-3.116-4.093-1.664"/>
        <path fill="#FFAF84" d="M246.32 169.968c-.884 3.38-1.108 4.123-2.834 5.293-1.728 1.171-4.113 1.007-5.748.752-1.764-.275-2.593-2.579-2.762-4.094-.175-1.569-.157-4.462.93-8.143.553-1.866 3.28-3.809 5.715-3.428 2.436.38 6.865 1.362 4.7 9.62"/>
        <g transform="translate(220.5 176)">
            <mask id="bt" fill="#fff">
                <use xlink:href="#br"/>
            </mask>
            <path fill="url(#bs)" d="M8.19 2.712C4.554 9.01 2.133 14.082.99 15.446c-1.671 1.992 1.557 5.837 2.887 5.009 1.123-.7 3.388-2.653 7.508-8.68 2.515-3.678 3.332-5.433 3.95-6.667C16.433 2.91 15.017.814 13.756.684a5.213 5.213 0 0 0-.512-.025c-1.975 0-4.461 1.03-5.053 2.053" mask="url(#bt)"/>
        </g>
        <path fill="#FFAF84" d="M243.492 175.54a76.287 76.287 0 0 1-.397 3.691c-.218 1.582-1.813 2.863-3.553 2.764a2.439 2.439 0 0 1-.2-.021c-1.556-.224-3.167-1.776-2.785-3.183.249-.914.443-1.844.589-2.662.28-1.564 1.595-2.8 3.299-3.088 1.668-.284 3.179.951 3.047 2.499"/>
        <g transform="translate(220.5 175)">
            <mask id="bw" fill="#fff">
                <use xlink:href="#bu"/>
            </mask>
            <path fill="url(#bv)" d="M11.775.961c-2.849.996-4.621 3.024-5.335 5.476C3.382 16.974.21 36.6.21 36.6l20.735 3.294c.456-6.483 2.842-15.891 7.019-24.61 2.42-5.052 2.713-10.269-2.668-12.918-1.186-.585-2.683-.95-3.968-1.155L17.494.603C17.047.53 16.332.48 15.528.48c-1.252 0-2.723.123-3.753.481" mask="url(#bw)"/>
        </g>
        <g transform="translate(217.5 212)">
            <mask id="bz" fill="#fff">
                <use xlink:href="#bx"/>
            </mask>
            <path fill="url(#by)" d="M.19 13.387l21.804 3.387s2.521-4.1 2.116-12.76L2.99.734S1.285 6.605.19 13.388" mask="url(#bz)"/>
        </g>
        <g transform="translate(231.5 250)">
            <mask id="bC" fill="#fff">
                <use xlink:href="#bA"/>
            </mask>
            <path fill="url(#bB)" d="M1.061 7.432c2.722 6.287 9.764 22.3 11.382 28.664.237.944 1 .812 1.78.707.492-.067 1.658-.257 2.145-.724.26-.25.039-.945-.035-1.53-.581-4.447-4.076-25.025-8.339-31.434C6.927 1.51 5.394.769 3.984.769c-2.574 0-4.74 2.468-2.923 6.663" mask="url(#bC)"/>
        </g>
        <g transform="translate(228.5 215)">
            <mask id="bF" fill="#fff">
                <use xlink:href="#bD"/>
            </mask>
            <path fill="url(#bE)" d="M.254 12.333C-.072 16.951 1.75 33.405 2.755 40.2c.398 2.694 7.463 6.34 7.652-3.124.087-4.198 2.095-27.19 2.145-29.424.051-2.233-.392-4.682-2.432-6.188C9.138.741 8.176.41 7.258.41 3.64.41.732 5.575.254 12.333" mask="url(#bF)"/>
        </g>
        <g transform="translate(211.5 247)">
            <mask id="bI" fill="#fff">
                <use xlink:href="#bG"/>
            </mask>
            <path fill="url(#bH)" d="M.812 4.633c-.206 6.804.833 20.096-.795 33.146-.161 1.283 3.446 2.892 3.576 1.732.979-9.94 6.367-27.065 4.574-35.371C7.594 1.49 5.79.02 4.11.02 2.447.02.906 1.464.812 4.633" mask="url(#bI)"/>
        </g>
        <g transform="translate(212.5 213)">
            <mask id="bL" fill="#fff">
                <use xlink:href="#bJ"/>
            </mask>
            <path fill="url(#bK)" d="M9.525.702C8.335.93 7.434 4.077 6.91 6.246 6.389 8.414 1.855 31.039.863 35.11-1.372 44.29 6.223 42.428 7.46 40c2.566-5.029 7.738-19.685 9.612-25.04C19.68 7.501 16.042.585 10.73.587c-.393 0-.794.038-1.204.115" mask="url(#bL)"/>
        </g>
        <g fill="#FFAF84">
            <path d="M236.291 167.248c.286 1.296.004 2.478-.628 2.638-.634.16-1.377-.76-1.663-2.057-.285-1.298-.004-2.478.63-2.639.632-.161 1.376.76 1.661 2.058M244.835 168.689c-.641 1.14-.712 2.357-.155 2.717.557.361 1.528-.27 2.17-1.41.641-1.14.712-2.357.155-2.718-.557-.362-1.528.271-2.17 1.41"/>
        </g>
        <g transform="translate(206.5 188)">
            <mask id="bO" fill="#fff">
                <use xlink:href="#bM"/>
            </mask>
            <path fill="url(#bN)" d="M.775 2.314c1.03 1.245 1.866 1.97 5.605 3.08 5.056 1.501 7.977 2.036 10.55 2.232 2.38.18 2.073-5.237-1.007-6.134C13.32.734 3.427 1.116 1.843.65a1.39 1.39 0 0 0-.394-.06C.6.59.045 1.434.775 2.315" mask="url(#bO)"/>
        </g>
        <g fill="#FFAF84">
            <path d="M208.487 188.534c-1-.518-9.67-3.494-9.744-1.574-.083 2.121 3.41 3.435 4.582 3.771 2.27.649 4.15 1.095 5.082.115.662-.695 1.032-1.82.08-2.312"/>
            <path d="M207.963 188.05c-.396-.334-2.75-2.31-3.154-1.896-.613.63.864 2.002 1.839 2.913.528.495 1.571.806 1.92.33.348-.474.028-.81-.605-1.346"/>
        </g>
        <g transform="translate(235.5 161)">
            <mask id="bR" fill="#fff">
                <use xlink:href="#bP"/>
            </mask>
            <path fill="url(#bQ)" d="M3.96.705C1.747 1.582 1.11 2.55.771 4.99c-.336 2.438.064 6.747 4.518 8.375 4.454 1.628 6.256-2.644 7.03-5.664.773-3.02.962-5.336-1.276-6.242C9.056.656 7.393.354 6.09.354c-.877 0-1.59.136-2.129.35" mask="url(#bR)"/>
        </g>
        <g transform="translate(232.5 157)">
            <mask id="bU" fill="#fff">
                <use xlink:href="#bS"/>
            </mask>
            <path fill="url(#bT)" d="M5.525 2.832S2.25 2.869.314 1.993c0 0 1.553 4.263 4.549 4.783 2.997.52 9.61 2.093 9.894-1.353.156-1.886-2.724-3.203-3.062-4.078 0 0-.172 1.283.366 1.659 0 0-3.526-1.41-4.872-2.556 0 0 .569 1.319 1.264 1.66 0 0-3.871-1.063-5.126-1.843 0 0 .866 1.335 2.198 2.567" mask="url(#bU)"/>
        </g>
        <g transform="translate(228.5 165)">
            <mask id="bX" fill="#fff">
                <use xlink:href="#bV"/>
            </mask>
            <path fill="url(#bW)" d="M46.106-4.648C30.226-7.296 7.66 3.271 3.094 19.792c-4.662 16.866 8.08 24.932-2.367 48.284-8.265 18.472 1.228 38.73 3.464 54.718 2.454 17.554-6.373 26.043-3.46 41.699 6.708 36.024 6.273 46.643 31.168 54.28 25.557 7.84 30.808-27.623 47.406-55.654C91.56 142.423 98.53 121.02 90.15 105.822c-12.032-21.823-29.621.317-23.452-26.013 3.692-15.757 3.094-42.993-19.8-38.893-22.893 4.1 22.082-41.753-.792-45.564" mask="url(#bX)"/>
        </g>
        <g>
            <path fill="#D8D8D8" d="M76.118 290.062c0 .9 17.192 1.632 38.4 1.632 21.206 0 38.396-.732 38.396-1.632 0-.902-17.19-1.634-38.396-1.634-21.208 0-38.4.732-38.4 1.634"/>
            <path fill="#FFAF84" d="M97.318 150.128c.24-1.13 2.584-9.908 4.148-8.713 1.73 1.322 1.56 5.01 1.352 6.244-.382 2.254-2.239 3.82-3.621 3.917-.978.068-2.107-.373-1.879-1.448"/>
        </g>
        <g transform="translate(92.5 150)">
            <mask id="ca" fill="#fff">
                <use xlink:href="#bY"/>
            </mask>
            <path fill="url(#bZ)" d="M5.028.88C4.322 2.404.662 11.507.301 14.267c-.426 3.263 4.077 6.096 4.842 3.817.828-2.466 1.387-5.418 1.853-10.812.372-4.307.973-4.58.309-6.12-.276-.637-.767-.898-1.23-.898-.447 0-.868.242-1.047.626" mask="url(#ca)"/>
        </g>
        <g transform="translate(82.5 164)">
            <mask id="cd" fill="#fff">
                <use xlink:href="#cb"/>
            </mask>
            <path fill="url(#cc)" d="M10.673 1.228c-.895 1.581-4.895 5.699-9.627 11.416-.84 1.015-.848 4.187.11 6.064.595 1.167 3.15 1.788 4.864-.043.96-1.03 2.356-2.434 4.974-6.15 4.292-6.088 5.336-8.954 5.596-10.28.199-1.024-1.824-2.123-3.617-2.123-.956 0-1.847.313-2.3 1.116" mask="url(#cd)"/>
        </g>
        <g>
            <path fill="#541968" d="M84.58 285.277c.265.976.164 1.326.269 1.963.129.79.885 1.077 1.322 1.725.484.715 1.242 1.75-1.718 1.808-3.167.062-5.044-.04-4.505-1.758.537-1.718.641-2.477.605-3.036-.035-.56 0-1.145.36-1.48.358-.336 3.2-.942 3.668.778M116.344 250.227c.27.45 1.508 1.463 3.184 2.088 1.677.624 5.175.787 3.272 1.501-1.903.714-4.178.447-5.329.326-1.15-.119-2.263.093-3.612.15-1.776.075-1.789-.211-1.644-2.149.2-2.663 3.254-3.371 4.129-1.916"/>
            <path fill="#FFAF84" d="M88.728 163.869c.36 3.582.465 4.374 2.035 5.843 1.57 1.465 4.025 1.68 5.729 1.68 1.84 0 3.055-2.213 3.472-3.729.429-1.57.875-4.516.358-8.442-.262-1.987-2.725-4.4-5.264-4.4-2.541 0-7.208.293-6.33 9.048"/>
            <path fill="#FFAF84" d="M90.56 170.178a86.343 86.343 0 0 0-.231 3.976c-.054 1.71 1.286 3.311 2.995 3.471.075.006.134.009.196.009 1.553 0 3.38-1.4 3.244-2.95a36.014 36.014 0 0 1-.128-2.913 4.03 4.03 0 0 0-2.694-3.78c-1.577-.554-3.253.527-3.382 2.187"/>
        </g>
        <g transform="translate(82.5 172)">
            <mask id="cg" fill="#fff">
                <use xlink:href="#ce"/>
            </mask>
            <path fill="url(#cf)" d="M10.09.571c-1.342 0-2.922.128-4.22.53C-.03 2.92-.557 8.26 1.11 13.777 3.982 23.292 4.924 33.22 4.36 39.869H25.99s-.127-20.418-1.574-31.6c-.339-2.6-1.821-4.942-4.565-6.411C18.222.986 15.281.57 14.085.57H10.09z" mask="url(#cg)"/>
        </g>
        <g transform="translate(84.5 211)">
            <mask id="cj" fill="#fff">
                <use xlink:href="#ch"/>
            </mask>
            <path fill="url(#ci)" d="M1.606.396c-1.759 8.559.09 13.029.09 13.029h21.293c-.016-6.922 0-13.029 0-13.029H1.606z" mask="url(#cj)"/>
        </g>
        <g transform="translate(80.5 246)">
            <mask id="cm" fill="#fff">
                <use xlink:href="#ck"/>
            </mask>
            <path fill="url(#cl)" d="M3.033 3.14C-.32 10.308-.053 33.226.126 37.798c.024.6-.085 1.337.233 1.544.597.39 1.86.383 2.387.365.843-.024 1.667-.022 1.753-1.012.571-6.675 4.852-25.6 6.604-32.385C12.17 2.17 9.989.046 7.533.046c-1.7 0-3.53 1.019-4.5 3.094" mask="url(#cm)"/>
        </g>
        <g transform="translate(83.5 212)">
            <mask id="cp" fill="#fff">
                <use xlink:href="#cn"/>
            </mask>
            <path fill="url(#co)" d="M5.898 1.394c-2.176 1.21-2.971 3.634-3.265 5.915C2.34 9.59.74 33.305.178 37.593c-1.265 9.66 6.03 7.054 6.82 4.377 1.998-6.757 6.254-23.22 6.647-27.97C14.254 6.673 12.017.72 8.218.72c-.72 0-1.496.213-2.32.673" mask="url(#cp)"/>
        </g>
        <g transform="translate(111.5 213)">
            <mask id="cs" fill="#fff">
                <use xlink:href="#cq"/>
            </mask>
            <path fill="url(#cr)" d="M12.347 2.627C6.862 9.46 4.044 27.88.4 37.55c-.41 1.136 3.699 1.363 4.136.1C8.998 24.791 16.064 12.984 18.992 6.587c1.77-3.865-.064-6.2-2.524-6.2-1.35 0-2.886.701-4.121 2.24" mask="url(#cs)"/>
        </g>
        <g transform="translate(95.5 213)">
            <mask id="cv" fill="#fff">
                <use xlink:href="#ct"/>
            </mask>
            <path fill="url(#cu)" d="M28.995.07C24.671.259 9.449.159 7.146.253 4.845.347 1.48.63 1.02 1.786-1.278 7.559 5.37 13.48 14.04 12.251c5.796-.82 13.397-1.337 18.998-2.92C35.675 8.585 38.6.057 29.653.055c-.213 0-.432.006-.658.016" mask="url(#cv)"/>
        </g>
        <g fill="#FFAF84">
            <path d="M99.142 163.067c-.488 1.13-.376 2.244.248 2.485.625.242 1.528-.479 2.016-1.609.487-1.13.376-2.244-.25-2.485-.625-.242-1.527.479-2.014 1.609M90.156 163.067c.486 1.13.376 2.244-.249 2.485-.625.242-1.529-.479-2.016-1.609-.486-1.13-.376-2.244.25-2.485.625-.242 1.528.479 2.015 1.609"/>
        </g>
        <g transform="translate(88.5 153)">
            <mask id="cx" fill="#fff">
                <use xlink:href="#cw"/>
            </mask>
            <path d="M8.118 1.408c-.737.303-8.91.59-7.402 2.862C2.129 6.398 8.95 6.597 11.179 5.813c2.227-.784 2.075-5.131-1.113-5.43h-.024c-1.758 0-.478.432-1.924 1.025" mask="url(#cx)"/>
        </g>
        <g fill="#FFAF84">
            <path d="M132.582 170.98c1.093-.387 9.832-2.978 9.623-.976-.23 2.213-3.48 4.012-4.644 4.48-2.129.858-4.437.061-5.24-1.095-.57-.82-.779-2.041.26-2.41"/>
            <path d="M132.958 170.427c.378-.38 2.637-2.632 3.081-2.232.677.612-.729 2.16-1.655 3.191-.502.557-1.547.966-1.94.496-.395-.47-.091-.845.514-1.455"/>
        </g>
        <g transform="translate(116.5 171)">
            <mask id="cA" fill="#fff">
                <use xlink:href="#cy"/>
            </mask>
            <path fill="url(#cz)" d="M16.9.723C15.165.88 5.124 2.344 2.5 3.475c-3.106 1.34-3.075 6.993-.644 6.489 2.628-.546 5.533-1.597 10.53-4.034 3.992-1.945 4.568-1.538 5.546-2.967.77-1.12-.081-2.244-.946-2.244a.94.94 0 0 0-.088.004" mask="url(#cA)"/>
        </g>
        <g transform="translate(97.5 173)">
            <mask id="cD" fill="#fff">
                <use xlink:href="#cB"/>
            </mask>
            <path fill="url(#cC)" d="M.82 3.805C.786 5.032 2.53 7.31 5.089 7.625c1.433.173 2.005.295 6.694.28 7.687-.02 10.743-.769 12.028-1.284 1.523-.611.197-5.25-2.534-4.998-1.868.172-10.28-.756-17.902-1.261A1.723 1.723 0 0 0 3.26.358C1.96.358.88 1.84.82 3.805" mask="url(#cD)"/>
        </g>
        <g transform="translate(87.5 155)">
            <mask id="cF" fill="#fff">
                <use xlink:href="#cE"/>
            </mask>
            <path d="M2.577.73C.055 1.3-.14 3.678.162 6.862c.302 3.183 1.477 7.796 6.46 6.834 4.984-.961 6.143-5.27 6.202-7.796.063-2.526-.447-3.606-2.636-4.84C9.376.603 8.109.263 6.39.263 5.3.264 4.03.4 2.577.73" mask="url(#cF)"/>
        </g>
        <g transform="translate(79.5 155)">
            <mask id="cI" fill="#fff">
                <use xlink:href="#cG"/>
            </mask>
            <path fill="url(#cH)" d="M-27.13-15.638c15.4-2.639 37.282 7.894 41.709 24.364C19.1 25.54 6.744 33.582 16.875 56.86c8.013 18.414-1.192 38.611-3.359 54.548-2.38 17.5 6.18 25.962 3.353 41.57-6.502 35.913-6.081 46.498-30.221 54.111-24.784 7.818-29.875-27.536-45.972-55.48-11.883-20.633-18.641-41.968-10.516-57.12 11.67-21.755 28.725.317 22.741-25.932-3.578-15.708-3-42.859 19.202-38.772 22.198 4.087-21.412-41.624.766-45.424" mask="url(#cI)"/>
        </g>
        <g transform="translate(28.5 159)">
            <mask id="cL" fill="#fff">
                <use xlink:href="#cJ"/>
            </mask>
            <path fill="url(#cK)" d="M6.096 1.926C3.56 3.801 1.763 7.317 2.388 11.192s0 7.586-.708 9.818c-.708 2.23-3.156 9.683 5.525 9.516 8.683-.169 9.224-10.447 8.224-15.712-1-5.265.826-8.971-.482-10.571C14 3.085 12.145.65 9.489.648c-1.016 0-2.149.357-3.393 1.278" mask="url(#cL)"/>
        </g>
        <path fill="#FFAF84" d="M68.838 179.6c1.568-1.113 3.144-2.323 3.466-1.064.338 1.325.334 1.186-.784 2.104-1.118.92-4-.104-2.682-1.04"/>
        <g transform="translate(38.5 176)">
            <mask id="cO" fill="#fff">
                <use xlink:href="#cM"/>
            </mask>
            <path fill="url(#cN)" d="M.932.71c-1.055.522-1.405 2.31.508 3.275 1.072.54 2.548 1.332 6.342 2.712 5.371 1.95 8.213 2.519 9.723 2.661.31.077.653.094 1.01.01 3.313-.772 4.521-1.123 8.56-3.214 2.802-1.453 3.9-.998 4.344-1.875.36-.713-.183-2.145-1.02-1.772-1.126.501-9.012 2.076-12.214 3.066-.029-.01-.055-.023-.088-.032-1.594-.438-5.981-2.543-11.89-5.138C5.731.193 4.95.064 4.08.064 3.034.064 1.861.251.932.71" mask="url(#cO)"/>
        </g>
        <path fill="#D8D8D8" d="M63.5 275.5c0 .828-8.955 1.5-20 1.5s-20-.672-20-1.5 8.955-1.5 20-1.5 20 .672 20 1.5"/>
        <g transform="translate(28.5 269)">
            <mask id="cQ" fill="#fff">
                <use xlink:href="#cP"/>
            </mask>
            <path d="M1.211.332C.931.608.902 1.082.93 1.54c.029.457-.052 1.075-.473 2.477S1.506 5.59 3.985 5.54c2.317-.047 1.724-.981 1.347-1.564-.344-.53-.937-.764-1.037-1.408-.082-.52-.002-.805-.21-1.6C3.893.235 3.197.02 2.533.02c-.608 0-1.186.18-1.322.31" mask="url(#cQ)"/>
        </g>
        <path fill="#ED9169" d="M37.837 171c-.02.183-.29 4.094-.337 7.095-.022 1.473.96 2.87 1.942 2.904l.043.001c.962 0 2.095-1.306 2.01-2.75a57.882 57.882 0 0 1-.035-5.33L37.837 171z"/>
        <g transform="translate(31.5 175)">
            <mask id="cT" fill="#fff">
                <use xlink:href="#cR"/>
            </mask>
            <path fill="url(#cS)" d="M.53 3.905C.36 5.033.526 6.167.856 7.247c.371 1.209.923 2.344 1.386 3.516.186.472.358.95.517 1.431.892 2.7 1.383 5.53 1.835 8.338.33 2.064.245 4.211-.024 6.278a42.943 42.943 0 0 1-.676 3.725c-.104.467-.987 4.229-1.028 4.633h16.546c-.16-3.368-3.85-13.94-1.353-20.79 1.73-4.742-.567-4.888-2.127-8.835-.382-.967-.69-2.029-1.321-2.862-.61-.805-1.587-1.366-2.53-1.613-.503-.13-1.023-.18-1.54-.225C9.587.764 8.194.615 6.746.615c-2.803 0-5.81.562-6.218 3.29" mask="url(#cT)"/>
        </g>
        <g transform="translate(33.5 210)">
            <mask id="cW" fill="#fff">
                <use xlink:href="#cU"/>
            </mask>
            <path fill="url(#cV)" d="M.725.57c-1.409 7.391.07 11.254.07 11.254h17.7C18.484 5.844 17.875.57 17.875.57H.725z" mask="url(#cW)"/>
        </g>
        <g transform="translate(29.5 239)">
            <mask id="cZ" fill="#fff">
                <use xlink:href="#cX"/>
            </mask>
            <path fill="url(#cY)" d="M2.848 3.072C.48 8.97.668 27.824.795 31.586c.016.494.257.402.514.303.755-.291 1.388-.407 1.687-.34.583.132.888.776.888.776.5-5.128 3.43-21.061 4.666-26.645C9.305 2.274 7.762.527 6.029.527c-1.202 0-2.495.837-3.181 2.545" mask="url(#cZ)"/>
        </g>
        <g transform="translate(31.5 211)">
            <mask id="dc" fill="#fff">
                <use xlink:href="#da"/>
            </mask>
            <path fill="url(#db)" d="M5.337.924c-1.893.973-2.585 2.921-2.84 4.756C2.243 7.516.851 26.58.363 30.026c-1.101 7.767 5.243 5.673 5.932 3.521 1.738-5.433 5.438-18.669 5.78-22.487C12.606 5.17 10.66.383 7.356.383c-.627 0-1.301.172-2.018.541" mask="url(#dc)"/>
        </g>
        <g transform="translate(45.5 240)">
            <mask id="df" fill="#fff">
                <use xlink:href="#dd"/>
            </mask>
            <path fill="url(#de)" d="M.991 3.566c-2.148 6.872 1.566 21.623 1.797 30.048.945-1.457 1.84-1.81 2.262-1.778a1.523 1.523 0 0 1 1.055.548C5.965 21.287 7.287 10.19 7.547 4.451 7.673 1.661 6.264.353 4.692.353 3.239.35 1.646 1.468.992 3.566" mask="url(#df)"/>
        </g>
        <g transform="translate(42.5 211)">
            <mask id="di" fill="#fff">
                <use xlink:href="#dg"/>
            </mask>
            <path fill="url(#dh)" d="M.276 11.588c.8 4.697 3.03 17.556 4.421 22.072.67 2.178 6.44 4.695 5.838-3.23-.267-3.514-.98-22.923-1.118-24.795C9.28 3.763 8.965 1.03 8.053.688a4.736 4.736 0 0 0-1.668-.31c-3.892 0-7.16 5.05-6.109 11.21" mask="url(#di)"/>
        </g>
        <g fill="#FFAF84">
            <path d="M71.319 177.912c.811-.613 1.883-1.221 2.622-1.285.74-.065-.868.784-1.446 1.291-.578.506-1.858.511-1.176-.006M34.927 202.608c2.087-.415 3.148-1.108 4.102-.589.952.521-.45 2.34-1.16 2.639-.711.297-3.21 1.575-3.943.892-.733-.685-.54-2.633 1.001-2.942"/>
        </g>
        <g transform="translate(23.5 177)">
            <mask id="dl" fill="#fff">
                <use xlink:href="#dj"/>
            </mask>
            <path fill="url(#dk)" d="M9.566 1.124c-.774.94-1.884 2.225-4.077 5.668C1.9 12.434.895 15.134.587 16.396c-.118.489.142.968.582 1.322.04.065.074.131.123.194 2.083 2.74 2.908 3.71 6.54 6.579 2.52 1.993 2.535 3.186 3.549 3.242.821.044 1.958-1.037 1.262-1.657-.903-.803-5.322-7.006-7.65-9.726 1.206-1.84 3.898-5.304 7.197-9.797.684-.934 1.288-3.4.795-5.247C12.809.647 12.159.13 11.376.13c-.576 0-1.226.282-1.81.995" mask="url(#dl)"/>
        </g>
        <path fill="#FFAF84" d="M34.091 169.534c.894 3.323 1.116 4.054 2.84 5.2 1.72 1.144 3.963 1.437 5.585 1.179 1.754-.278 2.756-2.31 2.917-3.802.169-1.545.081-5.09-1.015-8.71-.557-1.834-3.273-3.734-5.693-3.351-2.421.384-6.818 1.366-4.634 9.484"/>
        <g transform="translate(48.5 271)">
            <mask id="dn" fill="#fff">
                <use xlink:href="#dm"/>
            </mask>
            <path d="M.598 1.845C.423 3.219.433 3.293 1.738 3.303c.992.005 1.805.021 2.644.147.84.126 2.497.394 3.919-.049 1.42-.443-1.138-.679-2.346-1.182C4.748 1.715 3.876.951 3.695.621 3.482.233 3.047.039 2.57.039c-.84 0-1.816.6-1.971 1.806" mask="url(#dn)"/>
        </g>
        <g transform="translate(32.5 158)">
            <mask id="dq" fill="#fff">
                <use xlink:href="#do"/>
            </mask>
            <path fill="url(#dp)" d="M1.262 4.181c-1.294 2.298-1.123 6.387 1.027 6.4 2.153.012 10.933-5.59 9.279-7.6C10.175 1.287 8.63.661 7.158.661c-2.653 0-5.065 2.04-5.896 3.52" mask="url(#dq)"/>
        </g>
        <g transform="translate(39.5 159)">
            <mask id="dt" fill="#fff">
                <use xlink:href="#dr"/>
            </mask>
            <path fill="url(#ds)" d="M.608 2.12c.641 1.823 3.999 1.723 4.808 3.183.503.91.174-2.16-.819-3.415C4.014 1.152 2.289.095 1.23.095.488.095.074.613.608 2.12" mask="url(#dt)"/>
        </g>
        <path fill="#FFAF84" d="M36.183 167.582c.51 1.08.393 2.143-.262 2.373-.653.232-1.595-.457-2.103-1.537-.51-1.079-.393-2.142.26-2.373.653-.232 1.594.457 2.105 1.537"/>
        <g transform="translate(23.5 158)">
            <mask id="dw" fill="#fff">
                <use xlink:href="#du"/>
            </mask>
            <path fill="url(#dv)" d="M-25.936-54.316c15.522-2.655 37.578 7.945 42.04 24.516 4.556 16.919-7.897 25.01 2.314 48.434 8.077 18.53-1.201 38.85-3.387 54.885-2.398 17.609 6.23 26.125 3.382 41.829-6.555 36.137-6.133 46.787-30.462 54.447-24.98 7.865-30.112-27.707-46.335-55.823-11.978-20.762-18.79-42.232-10.6-57.476 11.762-21.89 28.954.317 22.922-26.095C-49.67 14.6-49.086-12.722-26.71-8.609c22.376 4.113-21.58-41.883.774-45.707" mask="url(#dw)"/>
        </g>
    </g>
</svg>
