<svg xmlns="http://www.w3.org/2000/svg" width="28" height="35" viewBox="0 0 28 35">
    <g fill="none" fill-rule="nonzero">
        <path fill="#FBFBFF" d="M17.545 34H1V1h26v23.571z"/>
        <path fill="#8690FA" d="M18 34v-9h9z"/>
        <path fill="#365DF7" d="M26.829 0H1.166C.522 0 0 .522 0 1.167v32.666C0 34.478.522 35 1.166 35h16.331c.31 0 .606-.124.825-.342l9.332-9.333c.097-.1.176-.215.233-.342.016-.036.026-.071.038-.109.034-.098.054-.2.061-.303 0-.024.014-.047.014-.071V1.167A1.166 1.166 0 0 0 26.829 0zM2.333 2.333h23.33v21h-8.166c-.644 0-1.166.523-1.166 1.167v8.167H2.333V2.333zm16.33 28.684v-5.35h5.35l-5.35 5.35z"/>
        <path fill="#CFD2FC" d="M8.167 11h11.666c.645 0 1.167-.448 1.167-1s-.522-1-1.167-1H8.167C7.522 9 7 9.448 7 10s.522 1 1.167 1zM8.167 18h11.666c.645 0 1.167-.448 1.167-1s-.522-1-1.167-1H8.167C7.522 16 7 16.448 7 17s.522 1 1.167 1zM12.833 23H8.167C7.522 23 7 23.448 7 24s.522 1 1.167 1h4.666c.645 0 1.167-.448 1.167-1s-.522-1-1.167-1z"/>
    </g>
</svg>
