<svg xmlns="http://www.w3.org/2000/svg" width="38" height="38" viewBox="0 0 38 38">
    <g fill="none" fill-rule="nonzero">
        <path fill="#CFD2FC" d="M20.4 24.1L10 28l3.9-10.4 3.9-2.6 5.2 5.2z"/>
        <path fill="#CFD2FC" d="M1 13.857L37 1 24.143 37 19 19z"/>
        <path fill="#FFF" d="M19 19l5.143 18L37 1z"/>
        <path fill="#355EF7" d="M36.309.074L.835 12.742a1.267 1.267 0 0 0 .078 2.406l11.409 3.258-3.38 9.012a1.268 1.268 0 0 0 1.633 1.636l9.013-3.38 3.259 11.408c.15.53.627.9 1.177.918h.041c.535 0 1.012-.337 1.192-.841L37.927 1.69A1.265 1.265 0 0 0 36.309.073v.001zm-4.453 4.28L18.629 17.577 5.403 13.807l26.453-9.454zM12.294 25.702l2.473-6.588 3.205.917.917 3.205-6.595 2.466zm11.91 6.89L20.42 19.368 33.647 6.145l-9.444 26.447z"/>
    </g>
</svg>
