<svg xmlns="http://www.w3.org/2000/svg" xmlns:xlink="http://www.w3.org/1999/xlink" width="89" height="92" viewBox="0 0 89 92">
    <defs>
        <rect id="b" width="45" height="45" y="14" rx="14"/>
        <filter id="a" width="271.1%" height="271.1%" x="-85.6%" y="-61.1%" filterUnits="objectBoundingBox">
            <feOffset dy="11" in="SourceAlpha" result="shadowOffsetOuter1"/>
            <feGaussianBlur in="shadowOffsetOuter1" result="shadowBlurOuter1" stdDeviation="11"/>
            <feColorMatrix in="shadowBlurOuter1" values="0 0 0 0 0.423529412 0 0 0 0 0.388235294 0 0 0 0 1 0 0 0 0.511180933 0"/>
        </filter>
    </defs>
    <g fill="none" fill-rule="evenodd">
        <g transform="translate(22)">
            <use fill="#000" filter="url(#a)" xlink:href="#b"/>
            <use fill="#6C63FF" xlink:href="#b"/>
        </g>
        <g fill-rule="nonzero">
            <path fill="#8690FA" d="M75 25c0 11.046-8.954 20-20 20s-20-8.954-20-20S43.954 5 55 5s20 8.954 20 20z"/>
            <path fill="#FFF" d="M45.833 15.833h18.334c.92 0 1.666.747 1.666 1.667v16.667H44.167V17.5c0-.92.746-1.667 1.666-1.667z"/>
            <path fill="#FFF" d="M64.167 15.833H45.833c-.92 0-1.666.747-1.666 1.667v3.333h21.666V17.5c0-.92-.746-1.667-1.666-1.667z"/>
            <path fill="#000" d="M55 0C41.193 0 30 11.193 30 25s11.193 25 25 25 25-11.193 25-25C79.985 11.2 68.8.015 55 0zm0 48.333c-12.887 0-23.333-10.446-23.333-23.333C31.667 12.113 42.113 1.667 55 1.667c12.887 0 23.333 10.446 23.333 23.333C78.32 37.88 67.88 48.319 55 48.333z"/>
            <path fill="#000" d="M64.167 15H45.833a2.5 2.5 0 0 0-2.5 2.5v16.667c0 .46.373.833.834.833h21.666c.46 0 .834-.373.834-.833V17.5a2.5 2.5 0 0 0-2.5-2.5zm-18.334 1.667h18.334c.46 0 .833.373.833.833V20H45v-2.5c0-.46.373-.833.833-.833zM45 33.333V21.667h5v11.666h-5zm6.667 0V21.667H65v11.666H51.667z"/>
            <path fill="#000" d="M64.167 18.333a.833.833 0 1 1-1.667 0 .833.833 0 0 1 1.667 0zM61.667 18.333a.833.833 0 1 1-1.667 0 .833.833 0 0 1 1.667 0zM59.167 18.333a.833.833 0 1 1-1.667 0 .833.833 0 0 1 1.667 0z"/>
        </g>
    </g>
</svg>
