<svg xmlns="http://www.w3.org/2000/svg" xmlns:xlink="http://www.w3.org/1999/xlink" width="89" height="91" viewBox="0 0 89 91">
    <defs>
        <rect id="b" width="45" height="44" y="14" rx="8"/>
        <filter id="a" width="271.1%" height="275%" x="-85.6%" y="-62.5%" filterUnits="objectBoundingBox">
            <feOffset dy="11" in="SourceAlpha" result="shadowOffsetOuter1"/>
            <feGaussianBlur in="shadowOffsetOuter1" result="shadowBlurOuter1" stdDeviation="11"/>
            <feColorMatrix in="shadowBlurOuter1" values="0 0 0 0 0.0224489683 0 0 0 0 0.830247962 0 0 0 0 0.647284942 0 0 0 0.410265516 0"/>
        </filter>
    </defs>
    <g fill="none" fill-rule="evenodd">
        <g transform="translate(22)">
            <use fill="#000" filter="url(#a)" xlink:href="#b"/>
            <use fill="#00EAB5" xlink:href="#b"/>
        </g>
        <g fill-rule="nonzero">
            <path fill="#05D4A5" d="M78 25c0 11.046-8.954 20-20 20s-20-8.954-20-20S46.954 5 58 5s20 8.954 20 20z"/>
            <path fill="#FFF" d="M48.833 19.167h18.334v15H48.833zM47.167 15.833h21.666v3.334H47.167z"/>
            <path fill="#000" d="M58 0C44.193 0 33 11.193 33 25s11.193 25 25 25 25-11.193 25-25C82.985 11.2 71.8.015 58 0zm0 48.333c-12.887 0-23.333-10.446-23.333-23.333C34.667 12.113 45.113 1.667 58 1.667c12.887 0 23.333 10.446 23.333 23.333C81.32 37.88 70.88 48.319 58 48.333z"/>
            <path fill="#1C1818" d="M68.833 15H47.167a.833.833 0 0 0-.834.833v3.334c0 .46.373.833.834.833H48v14.167c0 .46.373.833.833.833h18.334c.46 0 .833-.373.833-.833V20h.833c.46 0 .834-.373.834-.833v-3.334a.833.833 0 0 0-.834-.833zm-2.5 18.333H49.667V20h16.666v13.333zm1.667-15H48v-1.666h20v1.666z"/>
            <path fill="#000" d="M56.333 23.333h3.334a.833.833 0 0 0 0-1.666h-3.334a.833.833 0 0 0 0 1.666z"/>
        </g>
    </g>
</svg>
