<?xml version="1.0" encoding="UTF-8"?>
<svg width="73px" height="20px" viewBox="0 0 73 20" version="1.1" xmlns="http://www.w3.org/2000/svg" xmlns:xlink="http://www.w3.org/1999/xlink">
    <!-- Generator: Sketch 53 (72520) - https://sketchapp.com -->
    <title>Group 7 Copy</title>
    <desc>Created with Sketch.</desc>
    <defs>
        <polygon id="path-1" points="0 0.0143928036 16.6486944 0.0143928036 16.6486944 15.6521506 0 15.6521506"></polygon>
        <polygon id="path-3" points="0 0.0143928036 16.6486944 0.0143928036 16.6486944 15.6521506 0 15.6521506"></polygon>
    </defs>
    <g id="Symbols" stroke="none" stroke-width="1" fill="none" fill-rule="evenodd">
        <g id="Group-7-Copy" transform="translate(0.000000, -2.000000)">
            <g id="Group-3-Copy" transform="translate(2.000000, 6.000000)">
                <g id="Fill-1-Clipped">
                    <mask id="mask-2" fill="white">
                        <use xlink:href="#path-1"></use>
                    </mask>
                    <g id="path-1"></g>
                    <path d="M8.31600302,0.0143928036 L-0.000114924356,0.0143928036 L-0.000114924356,7.82554725 C-0.000114924356,14.7842879 8.95747247,18.2693254 14.1962992,13.3487856 L14.1962992,13.3486057 C19.435126,8.42806595 15.7247932,0.0143928036 8.31600302,0.0143928036" id="Fill-1" fill="#CEDAF3" fill-rule="nonzero" mask="url(#mask-2)"></path>
                </g>
            </g>
            <g id="Group-5">
                <path d="M27.2695312,19 L27.2695312,4.78125 L31.6445312,4.78125 C32.8945375,4.78125 34.0126904,5.06282271 34.9990234,5.62597656 C35.9853565,6.18913042 36.7552056,6.98990366 37.3085938,8.02832031 C37.8619819,9.06673696 38.1386719,10.2467382 38.1386719,11.5683594 L38.1386719,12.2226562 C38.1386719,13.5442774 37.8668647,14.7193959 37.3232422,15.7480469 C36.7796197,16.7766979 36.0130258,17.5742159 35.0234375,18.140625 C34.0338492,18.7070341 32.9173239,18.9934896 31.6738281,19 L27.2695312,19 Z M30.1992188,7.15429688 L30.1992188,16.6464844 L31.6152344,16.6464844 C32.7610734,16.6464844 33.6367157,16.2721392 34.2421875,15.5234375 C34.8476593,14.7747358 35.156901,13.703783 35.1699219,12.3105469 L35.1699219,11.5585938 C35.1699219,10.113274 34.8704457,9.01790737 34.2714844,8.27246094 C33.672523,7.5270145 32.7968808,7.15429688 31.6445312,7.15429688 L30.1992188,7.15429688 Z M46.2050781,19 C46.0748691,18.7460925 45.980469,18.4303404 45.921875,18.0527344 C45.2382778,18.8144569 44.3496148,19.1953125 43.2558594,19.1953125 C42.2206979,19.1953125 41.3629591,18.8958363 40.6826172,18.296875 C40.0022752,17.6979137 39.6621094,16.9427129 39.6621094,16.03125 C39.6621094,14.9114527 40.0771443,14.0520863 40.9072266,13.453125 C41.7373088,12.8541637 42.9368411,12.5514323 44.5058594,12.5449219 L45.8046875,12.5449219 L45.8046875,11.9394531 C45.8046875,11.4511694 45.6793632,11.0605483 45.4287109,10.7675781 C45.1780586,10.4746079 44.7825548,10.328125 44.2421875,10.328125 C43.7669247,10.328125 43.3942071,10.4420562 43.1240234,10.6699219 C42.8538398,10.8977876 42.71875,11.2102845 42.71875,11.6074219 L39.8964844,11.6074219 C39.8964844,10.9954396 40.0852846,10.4290391 40.4628906,9.90820312 C40.8404967,9.38736719 41.3743455,8.97884263 42.0644531,8.68261719 C42.7545607,8.38639175 43.5292926,8.23828125 44.3886719,8.23828125 C45.6907617,8.23828125 46.72428,8.56542642 47.4892578,9.21972656 C48.2542356,9.87402671 48.6367188,10.7936139 48.6367188,11.9785156 L48.6367188,16.5585938 C48.6432292,17.5612029 48.7832018,18.3196589 49.0566406,18.8339844 L49.0566406,19 L46.2050781,19 Z M43.8710938,17.0371094 C44.2877625,17.0371094 44.6718732,16.9443369 45.0234375,16.7587891 C45.3750018,16.5732413 45.6354158,16.3242203 45.8046875,16.0117188 L45.8046875,14.1953125 L44.75,14.1953125 C43.3372325,14.1953125 42.5852869,14.6835889 42.4941406,15.6601562 L42.484375,15.8261719 C42.484375,16.1777361 42.6080717,16.4674468 42.8554688,16.6953125 C43.1028658,16.9231782 43.4414041,17.0371094 43.8710938,17.0371094 Z M56.7421875,11.0800781 C56.358071,11.0279945 56.0195327,11.0019531 55.7265625,11.0019531 C54.6588488,11.0019531 53.958986,11.3632776 53.6269531,12.0859375 L53.6269531,19 L50.8046875,19 L50.8046875,8.43359375 L53.4707031,8.43359375 L53.5488281,9.69335938 C54.1152372,8.72330244 54.8997346,8.23828125 55.9023438,8.23828125 C56.2148453,8.23828125 56.5078111,8.28059854 56.78125,8.36523438 L56.7421875,11.0800781 Z M61.078125,19 L58.2460938,19 L58.2460938,8.43359375 L61.078125,8.43359375 L61.078125,19 Z M58.0800781,5.69921875 C58.0800781,5.27603955 58.2216783,4.92773574 58.5048828,4.65429688 C58.7880874,4.38085801 59.1738257,4.24414062 59.6621094,4.24414062 C60.1438826,4.24414062 60.5279934,4.38085801 60.8144531,4.65429688 C61.1009129,4.92773574 61.2441406,5.27603955 61.2441406,5.69921875 C61.2441406,6.1289084 61.0992853,6.48046738 60.8095703,6.75390625 C60.5198553,7.02734512 60.1373722,7.1640625 59.6621094,7.1640625 C59.1868466,7.1640625 58.8043634,7.02734512 58.5146484,6.75390625 C58.2249334,6.48046738 58.0800781,6.1289084 58.0800781,5.69921875 Z M62.9628906,13.6191406 C62.9628906,12.5709583 63.1647115,11.6367229 63.5683594,10.8164062 C63.9720072,9.99608965 64.5530561,9.36133037 65.3115234,8.91210938 C66.0699908,8.46288838 66.9505158,8.23828125 67.953125,8.23828125 C69.3789134,8.23828125 70.5426387,8.6744748 71.4443359,9.546875 C72.3460332,10.4192752 72.8489578,11.6041592 72.953125,13.1015625 L72.9726562,13.8242188 C72.9726562,15.4453206 72.5201868,16.7457633 71.6152344,17.7255859 C70.7102819,18.7054085 69.4961014,19.1953125 67.9726562,19.1953125 C66.4492111,19.1953125 65.233403,18.7070361 64.3251953,17.7304688 C63.4169876,16.7539014 62.9628906,15.4257896 62.9628906,13.7460938 L62.9628906,13.6191406 Z M65.7851562,13.8242188 C65.7851562,14.8268279 65.9739564,15.5934218 66.3515625,16.1240234 C66.7291686,16.654625 67.2695277,16.9199219 67.9726562,16.9199219 C68.6562534,16.9199219 69.1901022,16.6578802 69.5742188,16.1337891 C69.9583353,15.6096979 70.1503906,14.7714901 70.1503906,13.6191406 C70.1503906,12.6360628 69.9583353,11.8743517 69.5742188,11.3339844 C69.1901022,10.7936171 68.6497431,10.5234375 67.953125,10.5234375 C67.2630174,10.5234375 66.7291686,10.7919895 66.3515625,11.3291016 C65.9739564,11.8662136 65.7851562,12.697911 65.7851562,13.8242188 Z" id="Dario" fill="#3373FE" fill-rule="nonzero"></path>
                <g id="Group-3" transform="translate(0.000000, 2.000000)">
                    <g id="Fill-1-Clipped">
                        <mask id="mask-4" fill="white">
                            <use xlink:href="#path-3"></use>
                        </mask>
                        <g id="path-1"></g>
                        <path d="M8.31600302,0.0143928036 L-0.000114924356,0.0143928036 L-0.000114924356,7.82554725 C-0.000114924356,14.7842879 8.95747247,18.2693254 14.1962992,13.3487856 L14.1962992,13.3486057 C19.435126,8.42806595 15.7247932,0.0143928036 8.31600302,0.0143928036" id="Fill-1" fill="#1A5FF8" fill-rule="nonzero" mask="url(#mask-4)"></path>
                    </g>
                </g>
            </g>
        </g>
    </g>
</svg>